<svg width="24" height="22" viewBox="0 0 24 22" fill="none" xmlns="http://www.w3.org/2000/svg">
<path d="M11.4906 15.6562C11.514 15.6861 11.5439 15.7103 11.578 15.7269C11.6121 15.7435 11.6496 15.7522 11.6875 15.7522C11.7254 15.7522 11.7629 15.7435 11.797 15.7269C11.8311 15.7103 11.861 15.6861 11.8844 15.6562L15.3844 11.2281C15.5125 11.0656 15.3969 10.825 15.1875 10.825H12.8719V0.25C12.8719 0.1125 12.7594 0 12.6219 0H10.7469C10.6094 0 10.4969 0.1125 10.4969 0.25V10.8219H8.1875C7.97813 10.8219 7.8625 11.0625 7.99063 11.225L11.4906 15.6562ZM23.125 14.5625H21.25C21.1125 14.5625 21 14.675 21 14.8125V19.625H2.375V14.8125C2.375 14.675 2.2625 14.5625 2.125 14.5625H0.25C0.1125 14.5625 0 14.675 0 14.8125V21C0 21.5531 0.446875 22 1 22H22.375C22.9281 22 23.375 21.5531 23.375 21V14.8125C23.375 14.675 23.2625 14.5625 23.125 14.5625Z" fill="#F9B707"/>
</svg>
