<svg width="24" height="22" viewBox="0 0 24 22" fill="#FFF" xmlns="http://www.w3.org/2000/svg">
<path d="M2.19187 1.375C1.9981 1.375 1.81226 1.44743 1.67525 1.57636C1.53823 1.7053 1.46125 1.88016 1.46125 2.0625V7.5625C1.46125 7.74484 1.38427 7.9197 1.24725 8.04864C1.11024 8.17757 0.924399 8.25 0.730625 8.25C0.536851 8.25 0.351014 8.17757 0.213995 8.04864C0.0769764 7.9197 0 7.74484 0 7.5625V2.0625C0 1.51549 0.230929 0.990886 0.641985 0.604092C1.05304 0.217298 1.61055 0 2.19187 0L8.03687 0C8.23065 0 8.41649 0.0724328 8.5535 0.201364C8.69052 0.330295 8.7675 0.505164 8.7675 0.6875C8.7675 0.869836 8.69052 1.0447 8.5535 1.17364C8.41649 1.30257 8.23065 1.375 8.03687 1.375H2.19187ZM14.6125 0.6875C14.6125 0.505164 14.6895 0.330295 14.8265 0.201364C14.9635 0.0724328 15.1494 0 15.3431 0L21.1881 0C21.7694 0 22.327 0.217298 22.738 0.604092C23.1491 0.990886 23.38 1.51549 23.38 2.0625V7.5625C23.38 7.74484 23.303 7.9197 23.166 8.04864C23.029 8.17757 22.8431 8.25 22.6494 8.25C22.4556 8.25 22.2698 8.17757 22.1327 8.04864C21.9957 7.9197 21.9187 7.74484 21.9187 7.5625V2.0625C21.9187 1.88016 21.8418 1.7053 21.7048 1.57636C21.5677 1.44743 21.3819 1.375 21.1881 1.375H15.3431C15.1494 1.375 14.9635 1.30257 14.8265 1.17364C14.6895 1.0447 14.6125 0.869836 14.6125 0.6875V0.6875ZM0.730625 13.75C0.924399 13.75 1.11024 13.8224 1.24725 13.9514C1.38427 14.0803 1.46125 14.2552 1.46125 14.4375V19.9375C1.46125 20.1198 1.53823 20.2947 1.67525 20.4236C1.81226 20.5526 1.9981 20.625 2.19187 20.625H8.03687C8.23065 20.625 8.41649 20.6974 8.5535 20.8264C8.69052 20.9553 8.7675 21.1302 8.7675 21.3125C8.7675 21.4948 8.69052 21.6697 8.5535 21.7986C8.41649 21.9276 8.23065 22 8.03687 22H2.19187C1.61055 22 1.05304 21.7827 0.641985 21.3959C0.230929 21.0091 0 20.4845 0 19.9375L0 14.4375C0 14.2552 0.0769764 14.0803 0.213995 13.9514C0.351014 13.8224 0.536851 13.75 0.730625 13.75V13.75ZM22.6494 13.75C22.8431 13.75 23.029 13.8224 23.166 13.9514C23.303 14.0803 23.38 14.2552 23.38 14.4375V19.9375C23.38 20.4845 23.1491 21.0091 22.738 21.3959C22.327 21.7827 21.7694 22 21.1881 22H15.3431C15.1494 22 14.9635 21.9276 14.8265 21.7986C14.6895 21.6697 14.6125 21.4948 14.6125 21.3125C14.6125 21.1302 14.6895 20.9553 14.8265 20.8264C14.9635 20.6974 15.1494 20.625 15.3431 20.625H21.1881C21.3819 20.625 21.5677 20.5526 21.7048 20.4236C21.8418 20.2947 21.9187 20.1198 21.9187 19.9375V14.4375C21.9187 14.2552 21.9957 14.0803 22.1327 13.9514C22.2698 13.8224 22.4556 13.75 22.6494 13.75Z" fill="#FFF"/>
</svg>
