<svg width="88" height="50" viewBox="0 0 88 50" fill="none" xmlns="http://www.w3.org/2000/svg">
<circle cx="85.7789" cy="48.6707" r="1.32933" transform="rotate(-180 85.7789 48.6707)" fill="#DBDBDB"/>
<circle cx="85.7789" cy="22.0842" r="1.32933" transform="rotate(-180 85.7789 22.0842)" fill="#DBDBDB"/>
<circle cx="85.7789" cy="35.3772" r="1.32933" transform="rotate(-180 85.7789 35.3772)" fill="#DBDBDB"/>
<circle cx="85.7789" cy="8.79079" r="1.32933" transform="rotate(-180 85.7789 8.79079)" fill="#DBDBDB"/>
<circle cx="85.7789" cy="42.0242" r="1.32933" transform="rotate(-180 85.7789 42.0242)" fill="#DBDBDB"/>
<circle cx="85.7789" cy="15.4373" r="1.32933" transform="rotate(-180 85.7789 15.4373)" fill="#DBDBDB"/>
<circle cx="85.7789" cy="28.7307" r="1.32933" transform="rotate(-180 85.7789 28.7307)" fill="#DBDBDB"/>
<circle cx="85.7789" cy="2.1443" r="1.32933" transform="rotate(-180 85.7789 2.1443)" fill="#DBDBDB"/>
<circle cx="85.7789" cy="48.6707" r="1.32933" transform="rotate(-180 85.7789 48.6707)" fill="#DBDBDB"/>
<circle cx="85.7789" cy="22.0842" r="1.32933" transform="rotate(-180 85.7789 22.0842)" fill="#DBDBDB"/>
<circle cx="85.7789" cy="35.3772" r="1.32933" transform="rotate(-180 85.7789 35.3772)" fill="#DBDBDB"/>
<circle cx="85.7789" cy="8.79079" r="1.32933" transform="rotate(-180 85.7789 8.79079)" fill="#DBDBDB"/>
<circle cx="85.7789" cy="42.0242" r="1.32933" transform="rotate(-180 85.7789 42.0242)" fill="#DBDBDB"/>
<circle cx="85.7789" cy="15.4373" r="1.32933" transform="rotate(-180 85.7789 15.4373)" fill="#DBDBDB"/>
<circle cx="85.7789" cy="28.7307" r="1.32933" transform="rotate(-180 85.7789 28.7307)" fill="#DBDBDB"/>
<circle cx="85.7789" cy="2.1443" r="1.32933" transform="rotate(-180 85.7789 2.1443)" fill="#DBDBDB"/>
<circle cx="79.7969" cy="48.6707" r="1.32933" transform="rotate(-180 79.7969 48.6707)" fill="#DBDBDB"/>
<circle cx="79.797" cy="22.0842" r="1.32933" transform="rotate(-180 79.797 22.0842)" fill="#DBDBDB"/>
<circle cx="79.797" cy="35.3772" r="1.32933" transform="rotate(-180 79.797 35.3772)" fill="#DBDBDB"/>
<circle cx="79.7969" cy="8.79079" r="1.32933" transform="rotate(-180 79.7969 8.79079)" fill="#DBDBDB"/>
<circle cx="79.7969" cy="42.0242" r="1.32933" transform="rotate(-180 79.7969 42.0242)" fill="#DBDBDB"/>
<circle cx="79.7969" cy="15.4373" r="1.32933" transform="rotate(-180 79.7969 15.4373)" fill="#DBDBDB"/>
<circle cx="79.797" cy="28.7307" r="1.32933" transform="rotate(-180 79.797 28.7307)" fill="#DBDBDB"/>
<circle cx="79.7969" cy="2.1443" r="1.32933" transform="rotate(-180 79.7969 2.1443)" fill="#DBDBDB"/>
<circle cx="73.815" cy="48.6707" r="1.32933" transform="rotate(-180 73.815 48.6707)" fill="#DBDBDB"/>
<circle cx="73.815" cy="22.0842" r="1.32933" transform="rotate(-180 73.815 22.0842)" fill="#DBDBDB"/>
<circle cx="73.815" cy="35.3772" r="1.32933" transform="rotate(-180 73.815 35.3772)" fill="#DBDBDB"/>
<circle cx="73.815" cy="8.79079" r="1.32933" transform="rotate(-180 73.815 8.79079)" fill="#DBDBDB"/>
<circle cx="73.815" cy="42.0242" r="1.32933" transform="rotate(-180 73.815 42.0242)" fill="#DBDBDB"/>
<circle cx="73.815" cy="15.4373" r="1.32933" transform="rotate(-180 73.815 15.4373)" fill="#DBDBDB"/>
<circle cx="73.815" cy="28.7307" r="1.32933" transform="rotate(-180 73.815 28.7307)" fill="#DBDBDB"/>
<circle cx="73.815" cy="2.1443" r="1.32933" transform="rotate(-180 73.815 2.1443)" fill="#DBDBDB"/>
<circle cx="67.833" cy="48.6707" r="1.32933" transform="rotate(-180 67.833 48.6707)" fill="#DBDBDB"/>
<circle cx="67.833" cy="22.0842" r="1.32933" transform="rotate(-180 67.833 22.0842)" fill="#DBDBDB"/>
<circle cx="67.833" cy="35.3772" r="1.32933" transform="rotate(-180 67.833 35.3772)" fill="#DBDBDB"/>
<circle cx="67.833" cy="8.79079" r="1.32933" transform="rotate(-180 67.833 8.79079)" fill="#DBDBDB"/>
<circle cx="67.833" cy="42.0242" r="1.32933" transform="rotate(-180 67.833 42.0242)" fill="#DBDBDB"/>
<circle cx="67.833" cy="15.4373" r="1.32933" transform="rotate(-180 67.833 15.4373)" fill="#DBDBDB"/>
<circle cx="67.833" cy="28.7307" r="1.32933" transform="rotate(-180 67.833 28.7307)" fill="#DBDBDB"/>
<circle cx="67.833" cy="2.1443" r="1.32933" transform="rotate(-180 67.833 2.1443)" fill="#DBDBDB"/>
<circle cx="61.851" cy="48.6707" r="1.32933" transform="rotate(-180 61.851 48.6707)" fill="#DBDBDB"/>
<circle cx="61.851" cy="22.0842" r="1.32933" transform="rotate(-180 61.851 22.0842)" fill="#DBDBDB"/>
<circle cx="61.851" cy="35.3772" r="1.32933" transform="rotate(-180 61.851 35.3772)" fill="#DBDBDB"/>
<circle cx="61.851" cy="8.79079" r="1.32933" transform="rotate(-180 61.851 8.79079)" fill="#DBDBDB"/>
<circle cx="61.851" cy="42.0242" r="1.32933" transform="rotate(-180 61.851 42.0242)" fill="#DBDBDB"/>
<circle cx="61.851" cy="15.4373" r="1.32933" transform="rotate(-180 61.851 15.4373)" fill="#DBDBDB"/>
<circle cx="61.851" cy="28.7307" r="1.32933" transform="rotate(-180 61.851 28.7307)" fill="#DBDBDB"/>
<circle cx="61.851" cy="2.1443" r="1.32933" transform="rotate(-180 61.851 2.1443)" fill="#DBDBDB"/>
<circle cx="55.869" cy="48.6707" r="1.32933" transform="rotate(-180 55.869 48.6707)" fill="#DBDBDB"/>
<circle cx="55.869" cy="22.0842" r="1.32933" transform="rotate(-180 55.869 22.0842)" fill="#DBDBDB"/>
<circle cx="55.869" cy="35.3772" r="1.32933" transform="rotate(-180 55.869 35.3772)" fill="#DBDBDB"/>
<circle cx="55.869" cy="8.79079" r="1.32933" transform="rotate(-180 55.869 8.79079)" fill="#DBDBDB"/>
<circle cx="55.869" cy="42.0242" r="1.32933" transform="rotate(-180 55.869 42.0242)" fill="#DBDBDB"/>
<circle cx="55.869" cy="15.4373" r="1.32933" transform="rotate(-180 55.869 15.4373)" fill="#DBDBDB"/>
<circle cx="55.869" cy="28.7307" r="1.32933" transform="rotate(-180 55.869 28.7307)" fill="#DBDBDB"/>
<circle cx="55.869" cy="2.1443" r="1.32933" transform="rotate(-180 55.869 2.1443)" fill="#DBDBDB"/>
<circle cx="49.887" cy="48.6707" r="1.32933" transform="rotate(-180 49.887 48.6707)" fill="#DBDBDB"/>
<circle cx="49.887" cy="22.0842" r="1.32933" transform="rotate(-180 49.887 22.0842)" fill="#DBDBDB"/>
<circle cx="49.887" cy="35.3772" r="1.32933" transform="rotate(-180 49.887 35.3772)" fill="#DBDBDB"/>
<circle cx="49.887" cy="8.79079" r="1.32933" transform="rotate(-180 49.887 8.79079)" fill="#DBDBDB"/>
<circle cx="49.887" cy="42.0242" r="1.32933" transform="rotate(-180 49.887 42.0242)" fill="#DBDBDB"/>
<circle cx="49.8871" cy="15.4373" r="1.32933" transform="rotate(-180 49.8871 15.4373)" fill="#DBDBDB"/>
<circle cx="49.887" cy="28.7307" r="1.32933" transform="rotate(-180 49.887 28.7307)" fill="#DBDBDB"/>
<circle cx="49.887" cy="2.1443" r="1.32933" transform="rotate(-180 49.887 2.1443)" fill="#DBDBDB"/>
<circle cx="43.905" cy="48.6707" r="1.32933" transform="rotate(-180 43.905 48.6707)" fill="#DBDBDB"/>
<circle cx="43.905" cy="22.0842" r="1.32933" transform="rotate(-180 43.905 22.0842)" fill="#DBDBDB"/>
<circle cx="43.905" cy="35.3772" r="1.32933" transform="rotate(-180 43.905 35.3772)" fill="#DBDBDB"/>
<circle cx="43.905" cy="8.79079" r="1.32933" transform="rotate(-180 43.905 8.79079)" fill="#DBDBDB"/>
<circle cx="43.905" cy="42.0242" r="1.32933" transform="rotate(-180 43.905 42.0242)" fill="#DBDBDB"/>
<circle cx="43.905" cy="15.4373" r="1.32933" transform="rotate(-180 43.905 15.4373)" fill="#DBDBDB"/>
<circle cx="43.905" cy="28.7307" r="1.32933" transform="rotate(-180 43.905 28.7307)" fill="#DBDBDB"/>
<circle cx="43.905" cy="2.1443" r="1.32933" transform="rotate(-180 43.905 2.1443)" fill="#DBDBDB"/>
<circle cx="37.9231" cy="48.6707" r="1.32933" transform="rotate(-180 37.9231 48.6707)" fill="#DBDBDB"/>
<circle cx="37.9231" cy="22.0842" r="1.32933" transform="rotate(-180 37.9231 22.0842)" fill="#DBDBDB"/>
<circle cx="37.9231" cy="35.3772" r="1.32933" transform="rotate(-180 37.9231 35.3772)" fill="#DBDBDB"/>
<circle cx="37.9231" cy="8.79079" r="1.32933" transform="rotate(-180 37.9231 8.79079)" fill="#DBDBDB"/>
<circle cx="37.9231" cy="42.0242" r="1.32933" transform="rotate(-180 37.9231 42.0242)" fill="#DBDBDB"/>
<circle cx="37.9231" cy="15.4373" r="1.32933" transform="rotate(-180 37.9231 15.4373)" fill="#DBDBDB"/>
<circle cx="37.9231" cy="28.7307" r="1.32933" transform="rotate(-180 37.9231 28.7307)" fill="#DBDBDB"/>
<circle cx="37.9231" cy="2.14382" r="1.32933" transform="rotate(-180 37.9231 2.14382)" fill="#DBDBDB"/>
<circle cx="31.9411" cy="48.6707" r="1.32933" transform="rotate(-180 31.9411 48.6707)" fill="#DBDBDB"/>
<circle cx="31.9411" cy="22.0842" r="1.32933" transform="rotate(-180 31.9411 22.0842)" fill="#DBDBDB"/>
<circle cx="31.9411" cy="35.3772" r="1.32933" transform="rotate(-180 31.9411 35.3772)" fill="#DBDBDB"/>
<circle cx="31.9411" cy="8.79079" r="1.32933" transform="rotate(-180 31.9411 8.79079)" fill="#DBDBDB"/>
<circle cx="31.9411" cy="42.0242" r="1.32933" transform="rotate(-180 31.9411 42.0242)" fill="#DBDBDB"/>
<circle cx="31.9411" cy="15.4373" r="1.32933" transform="rotate(-180 31.9411 15.4373)" fill="#DBDBDB"/>
<circle cx="31.9411" cy="28.7307" r="1.32933" transform="rotate(-180 31.9411 28.7307)" fill="#DBDBDB"/>
<circle cx="31.9411" cy="2.1443" r="1.32933" transform="rotate(-180 31.9411 2.1443)" fill="#DBDBDB"/>
<circle cx="25.9591" cy="48.6707" r="1.32933" transform="rotate(-180 25.9591 48.6707)" fill="#DBDBDB"/>
<circle cx="25.9591" cy="22.0842" r="1.32933" transform="rotate(-180 25.9591 22.0842)" fill="#DBDBDB"/>
<circle cx="25.9591" cy="35.3772" r="1.32933" transform="rotate(-180 25.9591 35.3772)" fill="#DBDBDB"/>
<circle cx="25.9591" cy="8.79079" r="1.32933" transform="rotate(-180 25.9591 8.79079)" fill="#DBDBDB"/>
<circle cx="25.9591" cy="42.0242" r="1.32933" transform="rotate(-180 25.9591 42.0242)" fill="#DBDBDB"/>
<circle cx="25.9591" cy="15.4373" r="1.32933" transform="rotate(-180 25.9591 15.4373)" fill="#DBDBDB"/>
<circle cx="25.9591" cy="28.7307" r="1.32933" transform="rotate(-180 25.9591 28.7307)" fill="#DBDBDB"/>
<circle cx="25.9591" cy="2.14382" r="1.32933" transform="rotate(-180 25.9591 2.14382)" fill="#DBDBDB"/>
<circle cx="19.9772" cy="48.6707" r="1.32933" transform="rotate(-180 19.9772 48.6707)" fill="#DBDBDB"/>
<circle cx="19.9772" cy="22.0842" r="1.32933" transform="rotate(-180 19.9772 22.0842)" fill="#DBDBDB"/>
<circle cx="19.9772" cy="35.3772" r="1.32933" transform="rotate(-180 19.9772 35.3772)" fill="#DBDBDB"/>
<circle cx="19.9771" cy="8.79079" r="1.32933" transform="rotate(-180 19.9771 8.79079)" fill="#DBDBDB"/>
<circle cx="19.9772" cy="42.0242" r="1.32933" transform="rotate(-180 19.9772 42.0242)" fill="#DBDBDB"/>
<circle cx="19.9772" cy="15.4373" r="1.32933" transform="rotate(-180 19.9772 15.4373)" fill="#DBDBDB"/>
<circle cx="19.9772" cy="28.7307" r="1.32933" transform="rotate(-180 19.9772 28.7307)" fill="#DBDBDB"/>
<circle cx="19.9771" cy="2.1443" r="1.32933" transform="rotate(-180 19.9771 2.1443)" fill="#DBDBDB"/>
<circle cx="13.9951" cy="48.6707" r="1.32933" transform="rotate(-180 13.9951 48.6707)" fill="#DBDBDB"/>
<circle cx="13.9951" cy="22.0842" r="1.32933" transform="rotate(-180 13.9951 22.0842)" fill="#DBDBDB"/>
<circle cx="13.9951" cy="35.3772" r="1.32933" transform="rotate(-180 13.9951 35.3772)" fill="#DBDBDB"/>
<circle cx="13.9951" cy="8.79079" r="1.32933" transform="rotate(-180 13.9951 8.79079)" fill="#DBDBDB"/>
<circle cx="13.9951" cy="42.0242" r="1.32933" transform="rotate(-180 13.9951 42.0242)" fill="#DBDBDB"/>
<circle cx="13.9951" cy="15.4373" r="1.32933" transform="rotate(-180 13.9951 15.4373)" fill="#DBDBDB"/>
<circle cx="13.9951" cy="28.7307" r="1.32933" transform="rotate(-180 13.9951 28.7307)" fill="#DBDBDB"/>
<circle cx="13.9951" cy="2.14382" r="1.32933" transform="rotate(-180 13.9951 2.14382)" fill="#DBDBDB"/>
<circle cx="8.0132" cy="48.6707" r="1.32933" transform="rotate(-180 8.0132 48.6707)" fill="#DBDBDB"/>
<circle cx="8.0132" cy="22.0842" r="1.32933" transform="rotate(-180 8.0132 22.0842)" fill="#DBDBDB"/>
<circle cx="8.0132" cy="35.3772" r="1.32933" transform="rotate(-180 8.0132 35.3772)" fill="#DBDBDB"/>
<circle cx="8.0132" cy="8.79079" r="1.32933" transform="rotate(-180 8.0132 8.79079)" fill="#DBDBDB"/>
<circle cx="8.0132" cy="42.0242" r="1.32933" transform="rotate(-180 8.0132 42.0242)" fill="#DBDBDB"/>
<circle cx="8.0132" cy="15.4373" r="1.32933" transform="rotate(-180 8.0132 15.4373)" fill="#DBDBDB"/>
<circle cx="8.0132" cy="28.7307" r="1.32933" transform="rotate(-180 8.0132 28.7307)" fill="#DBDBDB"/>
<circle cx="8.0132" cy="2.1443" r="1.32933" transform="rotate(-180 8.0132 2.1443)" fill="#DBDBDB"/>
<circle cx="2.03115" cy="48.6707" r="1.32933" transform="rotate(-180 2.03115 48.6707)" fill="#DBDBDB"/>
<circle cx="2.03127" cy="22.0842" r="1.32933" transform="rotate(-180 2.03127 22.0842)" fill="#DBDBDB"/>
<circle cx="2.03127" cy="35.3772" r="1.32933" transform="rotate(-180 2.03127 35.3772)" fill="#DBDBDB"/>
<circle cx="2.03127" cy="8.79079" r="1.32933" transform="rotate(-180 2.03127 8.79079)" fill="#DBDBDB"/>
<circle cx="2.03127" cy="42.0242" r="1.32933" transform="rotate(-180 2.03127 42.0242)" fill="#DBDBDB"/>
<circle cx="2.03127" cy="15.4373" r="1.32933" transform="rotate(-180 2.03127 15.4373)" fill="#DBDBDB"/>
<circle cx="2.03127" cy="28.7307" r="1.32933" transform="rotate(-180 2.03127 28.7307)" fill="#DBDBDB"/>
<circle cx="2.03127" cy="2.1443" r="1.32933" transform="rotate(-180 2.03127 2.1443)" fill="#DBDBDB"/>
</svg>
