<svg width="119" height="114" viewBox="0 0 119 114" fill="none" xmlns="http://www.w3.org/2000/svg">
<circle cx="116.201" cy="44.6889" r="1.6093" transform="rotate(138.755 116.201 44.6889)" fill="#DBDBDB"/>
<circle cx="94.9814" cy="20.4887" r="1.6093" transform="rotate(138.755 94.9814 20.4887)" fill="#DBDBDB"/>
<circle cx="105.591" cy="32.5888" r="1.6093" transform="rotate(138.755 105.591 32.5888)" fill="#DBDBDB"/>
<circle cx="84.3718" cy="8.38808" r="1.6093" transform="rotate(138.755 84.3718 8.38808)" fill="#DBDBDB"/>
<circle cx="110.896" cy="38.6391" r="1.6093" transform="rotate(138.755 110.896 38.6391)" fill="#DBDBDB"/>
<circle cx="89.6768" cy="14.4384" r="1.6093" transform="rotate(138.755 89.6768 14.4384)" fill="#DBDBDB"/>
<circle cx="100.287" cy="26.5385" r="1.6093" transform="rotate(138.755 100.287 26.5385)" fill="#DBDBDB"/>
<circle cx="79.0669" cy="2.33827" r="1.6093" transform="rotate(138.755 79.0669 2.33827)" fill="#DBDBDB"/>
<circle cx="116.201" cy="44.6889" r="1.6093" transform="rotate(138.755 116.201 44.6889)" fill="#DBDBDB"/>
<circle cx="94.9814" cy="20.4887" r="1.6093" transform="rotate(138.755 94.9814 20.4887)" fill="#DBDBDB"/>
<circle cx="105.591" cy="32.5888" r="1.6093" transform="rotate(138.755 105.591 32.5888)" fill="#DBDBDB"/>
<circle cx="84.3718" cy="8.38808" r="1.6093" transform="rotate(138.755 84.3718 8.38808)" fill="#DBDBDB"/>
<circle cx="110.896" cy="38.6391" r="1.6093" transform="rotate(138.755 110.896 38.6391)" fill="#DBDBDB"/>
<circle cx="89.6768" cy="14.4384" r="1.6093" transform="rotate(138.755 89.6768 14.4384)" fill="#DBDBDB"/>
<circle cx="100.287" cy="26.5385" r="1.6093" transform="rotate(138.755 100.287 26.5385)" fill="#DBDBDB"/>
<circle cx="79.0669" cy="2.33827" r="1.6093" transform="rotate(138.755 79.0669 2.33827)" fill="#DBDBDB"/>
<circle cx="110.756" cy="49.4633" r="1.6093" transform="rotate(138.755 110.756 49.4633)" fill="#DBDBDB"/>
<circle cx="89.5366" cy="25.2631" r="1.6093" transform="rotate(138.755 89.5366 25.2631)" fill="#DBDBDB"/>
<circle cx="100.146" cy="37.3632" r="1.6093" transform="rotate(138.755 100.146 37.3632)" fill="#DBDBDB"/>
<circle cx="78.9268" cy="13.163" r="1.6093" transform="rotate(138.755 78.9268 13.163)" fill="#DBDBDB"/>
<circle cx="105.451" cy="43.413" r="1.6093" transform="rotate(138.755 105.451 43.413)" fill="#DBDBDB"/>
<circle cx="84.2317" cy="19.2128" r="1.6093" transform="rotate(138.755 84.2317 19.2128)" fill="#DBDBDB"/>
<circle cx="94.8413" cy="31.3129" r="1.6093" transform="rotate(138.755 94.8413 31.3129)" fill="#DBDBDB"/>
<circle cx="73.6218" cy="7.11268" r="1.6093" transform="rotate(138.755 73.6218 7.11268)" fill="#DBDBDB"/>
<circle cx="105.311" cy="54.2377" r="1.6093" transform="rotate(138.755 105.311 54.2377)" fill="#DBDBDB"/>
<circle cx="84.0913" cy="30.0375" r="1.6093" transform="rotate(138.755 84.0913 30.0375)" fill="#DBDBDB"/>
<circle cx="94.7012" cy="42.1376" r="1.6093" transform="rotate(138.755 94.7012 42.1376)" fill="#DBDBDB"/>
<circle cx="73.4814" cy="17.9374" r="1.6093" transform="rotate(138.755 73.4814 17.9374)" fill="#DBDBDB"/>
<circle cx="100.006" cy="48.1874" r="1.6093" transform="rotate(138.755 100.006 48.1874)" fill="#DBDBDB"/>
<circle cx="78.7866" cy="23.9872" r="1.6093" transform="rotate(138.755 78.7866 23.9872)" fill="#DBDBDB"/>
<circle cx="89.3962" cy="36.0873" r="1.6093" transform="rotate(138.755 89.3962 36.0873)" fill="#DBDBDB"/>
<circle cx="68.1768" cy="11.8871" r="1.6093" transform="rotate(138.755 68.1768 11.8871)" fill="#DBDBDB"/>
<circle cx="99.866" cy="59.0121" r="1.6093" transform="rotate(138.755 99.866 59.0121)" fill="#DBDBDB"/>
<circle cx="78.6465" cy="34.8114" r="1.6093" transform="rotate(138.755 78.6465 34.8114)" fill="#DBDBDB"/>
<circle cx="89.2561" cy="46.912" r="1.6093" transform="rotate(138.755 89.2561 46.912)" fill="#DBDBDB"/>
<circle cx="68.0366" cy="22.7118" r="1.6093" transform="rotate(138.755 68.0366 22.7118)" fill="#DBDBDB"/>
<circle cx="94.5613" cy="52.9623" r="1.6093" transform="rotate(138.755 94.5613 52.9623)" fill="#DBDBDB"/>
<circle cx="73.3413" cy="28.7616" r="1.6093" transform="rotate(138.755 73.3413 28.7616)" fill="#DBDBDB"/>
<circle cx="83.9512" cy="40.8617" r="1.6093" transform="rotate(138.755 83.9512 40.8617)" fill="#DBDBDB"/>
<circle cx="62.7314" cy="16.6615" r="1.6093" transform="rotate(138.755 62.7314 16.6615)" fill="#DBDBDB"/>
<circle cx="94.4209" cy="63.7865" r="1.6093" transform="rotate(138.755 94.4209 63.7865)" fill="#DBDBDB"/>
<circle cx="73.2014" cy="39.5863" r="1.6093" transform="rotate(138.755 73.2014 39.5863)" fill="#DBDBDB"/>
<circle cx="83.8113" cy="51.6864" r="1.6093" transform="rotate(138.755 83.8113 51.6864)" fill="#DBDBDB"/>
<circle cx="62.5913" cy="27.4857" r="1.6093" transform="rotate(138.755 62.5913 27.4857)" fill="#DBDBDB"/>
<circle cx="89.116" cy="57.7367" r="1.6093" transform="rotate(138.755 89.116 57.7367)" fill="#DBDBDB"/>
<circle cx="67.8962" cy="33.536" r="1.6093" transform="rotate(138.755 67.8962 33.536)" fill="#DBDBDB"/>
<circle cx="78.5061" cy="45.6361" r="1.6093" transform="rotate(138.755 78.5061 45.6361)" fill="#DBDBDB"/>
<circle cx="57.2866" cy="21.4359" r="1.6093" transform="rotate(138.755 57.2866 21.4359)" fill="#DBDBDB"/>
<circle cx="88.9758" cy="68.5609" r="1.6093" transform="rotate(138.755 88.9758 68.5609)" fill="#DBDBDB"/>
<circle cx="67.7561" cy="44.3607" r="1.6093" transform="rotate(138.755 67.7561 44.3607)" fill="#DBDBDB"/>
<circle cx="78.366" cy="56.4608" r="1.6093" transform="rotate(138.755 78.366 56.4608)" fill="#DBDBDB"/>
<circle cx="57.1462" cy="32.2606" r="1.6093" transform="rotate(138.755 57.1462 32.2606)" fill="#DBDBDB"/>
<circle cx="83.6709" cy="62.5111" r="1.6093" transform="rotate(138.755 83.6709 62.5111)" fill="#DBDBDB"/>
<circle cx="62.4514" cy="38.3104" r="1.6093" transform="rotate(138.755 62.4514 38.3104)" fill="#DBDBDB"/>
<circle cx="73.0613" cy="50.411" r="1.6093" transform="rotate(138.755 73.0613 50.411)" fill="#DBDBDB"/>
<circle cx="51.8415" cy="26.2103" r="1.6093" transform="rotate(138.755 51.8415 26.2103)" fill="#DBDBDB"/>
<circle cx="83.5308" cy="73.3353" r="1.6093" transform="rotate(138.755 83.5308 73.3353)" fill="#DBDBDB"/>
<circle cx="62.311" cy="49.1351" r="1.6093" transform="rotate(138.755 62.311 49.1351)" fill="#DBDBDB"/>
<circle cx="72.9209" cy="61.2352" r="1.6093" transform="rotate(138.755 72.9209 61.2352)" fill="#DBDBDB"/>
<circle cx="51.7014" cy="37.035" r="1.6093" transform="rotate(138.755 51.7014 37.035)" fill="#DBDBDB"/>
<circle cx="78.2258" cy="67.2855" r="1.6093" transform="rotate(138.755 78.2258 67.2855)" fill="#DBDBDB"/>
<circle cx="57.0061" cy="43.0849" r="1.6093" transform="rotate(138.755 57.0061 43.0849)" fill="#DBDBDB"/>
<circle cx="67.616" cy="55.1854" r="1.6093" transform="rotate(138.755 67.616 55.1854)" fill="#DBDBDB"/>
<circle cx="46.3962" cy="30.9848" r="1.6093" transform="rotate(138.755 46.3962 30.9848)" fill="#DBDBDB"/>
<circle cx="78.0857" cy="78.1098" r="1.6093" transform="rotate(138.755 78.0857 78.1098)" fill="#DBDBDB"/>
<circle cx="56.866" cy="53.9096" r="1.6093" transform="rotate(138.755 56.866 53.9096)" fill="#DBDBDB"/>
<circle cx="67.4758" cy="66.0097" r="1.6093" transform="rotate(138.755 67.4758 66.0097)" fill="#DBDBDB"/>
<circle cx="46.2561" cy="41.8095" r="1.6093" transform="rotate(138.755 46.2561 41.8095)" fill="#DBDBDB"/>
<circle cx="72.7808" cy="72.0595" r="1.6093" transform="rotate(138.755 72.7808 72.0595)" fill="#DBDBDB"/>
<circle cx="51.561" cy="47.8593" r="1.6093" transform="rotate(138.755 51.561 47.8593)" fill="#DBDBDB"/>
<circle cx="62.1709" cy="59.9594" r="1.6093" transform="rotate(138.755 62.1709 59.9594)" fill="#DBDBDB"/>
<circle cx="40.9514" cy="35.7592" r="1.6093" transform="rotate(138.755 40.9514 35.7592)" fill="#DBDBDB"/>
<circle cx="72.6406" cy="82.8842" r="1.6093" transform="rotate(138.755 72.6406 82.8842)" fill="#DBDBDB"/>
<circle cx="51.4209" cy="58.684" r="1.6093" transform="rotate(138.755 51.4209 58.684)" fill="#DBDBDB"/>
<circle cx="62.0308" cy="70.7841" r="1.6093" transform="rotate(138.755 62.0308 70.7841)" fill="#DBDBDB"/>
<circle cx="40.811" cy="46.5839" r="1.6093" transform="rotate(138.755 40.811 46.5839)" fill="#DBDBDB"/>
<circle cx="67.3357" cy="76.8344" r="1.6093" transform="rotate(138.755 67.3357 76.8344)" fill="#DBDBDB"/>
<circle cx="46.116" cy="52.6337" r="1.6093" transform="rotate(138.755 46.116 52.6337)" fill="#DBDBDB"/>
<circle cx="56.7258" cy="64.7338" r="1.6093" transform="rotate(138.755 56.7258 64.7338)" fill="#DBDBDB"/>
<circle cx="35.5061" cy="40.5336" r="1.6093" transform="rotate(138.755 35.5061 40.5336)" fill="#DBDBDB"/>
<circle cx="67.1955" cy="87.6591" r="1.6093" transform="rotate(138.755 67.1955 87.6591)" fill="#DBDBDB"/>
<circle cx="45.9758" cy="63.4584" r="1.6093" transform="rotate(138.755 45.9758 63.4584)" fill="#DBDBDB"/>
<circle cx="56.5857" cy="75.5585" r="1.6093" transform="rotate(138.755 56.5857 75.5585)" fill="#DBDBDB"/>
<circle cx="35.366" cy="51.3583" r="1.6093" transform="rotate(138.755 35.366 51.3583)" fill="#DBDBDB"/>
<circle cx="61.8906" cy="81.6088" r="1.6093" transform="rotate(138.755 61.8906 81.6088)" fill="#DBDBDB"/>
<circle cx="40.6709" cy="57.4081" r="1.6093" transform="rotate(138.755 40.6709 57.4081)" fill="#DBDBDB"/>
<circle cx="51.2808" cy="69.5087" r="1.6093" transform="rotate(138.755 51.2808 69.5087)" fill="#DBDBDB"/>
<circle cx="30.061" cy="45.308" r="1.6093" transform="rotate(138.755 30.061 45.308)" fill="#DBDBDB"/>
<circle cx="61.7505" cy="92.433" r="1.6093" transform="rotate(138.755 61.7505 92.433)" fill="#DBDBDB"/>
<circle cx="40.5308" cy="68.2328" r="1.6093" transform="rotate(138.755 40.5308 68.2328)" fill="#DBDBDB"/>
<circle cx="51.1406" cy="80.3329" r="1.6093" transform="rotate(138.755 51.1406 80.3329)" fill="#DBDBDB"/>
<circle cx="29.9209" cy="56.1327" r="1.6093" transform="rotate(138.755 29.9209 56.1327)" fill="#DBDBDB"/>
<circle cx="56.4455" cy="86.3832" r="1.6093" transform="rotate(138.755 56.4455 86.3832)" fill="#DBDBDB"/>
<circle cx="35.2258" cy="62.1825" r="1.6093" transform="rotate(138.755 35.2258 62.1825)" fill="#DBDBDB"/>
<circle cx="45.8357" cy="74.2831" r="1.6093" transform="rotate(138.755 45.8357 74.2831)" fill="#DBDBDB"/>
<circle cx="24.616" cy="50.0824" r="1.6093" transform="rotate(138.755 24.616 50.0824)" fill="#DBDBDB"/>
<circle cx="56.3054" cy="97.2074" r="1.6093" transform="rotate(138.755 56.3054 97.2074)" fill="#DBDBDB"/>
<circle cx="35.0857" cy="73.0072" r="1.6093" transform="rotate(138.755 35.0857 73.0072)" fill="#DBDBDB"/>
<circle cx="45.6955" cy="85.1073" r="1.6093" transform="rotate(138.755 45.6955 85.1073)" fill="#DBDBDB"/>
<circle cx="24.4758" cy="60.9071" r="1.6093" transform="rotate(138.755 24.4758 60.9071)" fill="#DBDBDB"/>
<circle cx="51.0005" cy="91.1571" r="1.6093" transform="rotate(138.755 51.0005 91.1571)" fill="#DBDBDB"/>
<circle cx="29.7808" cy="66.9574" r="1.6093" transform="rotate(138.755 29.7808 66.9574)" fill="#DBDBDB"/>
<circle cx="40.3906" cy="79.0575" r="1.6093" transform="rotate(138.755 40.3906 79.0575)" fill="#DBDBDB"/>
<circle cx="19.1709" cy="54.8568" r="1.6093" transform="rotate(138.755 19.1709 54.8568)" fill="#DBDBDB"/>
<circle cx="50.8603" cy="101.982" r="1.6093" transform="rotate(138.755 50.8603 101.982)" fill="#DBDBDB"/>
<circle cx="29.6406" cy="77.7816" r="1.6093" transform="rotate(138.755 29.6406 77.7816)" fill="#DBDBDB"/>
<circle cx="40.2505" cy="89.8817" r="1.6093" transform="rotate(138.755 40.2505 89.8817)" fill="#DBDBDB"/>
<circle cx="19.0308" cy="65.6815" r="1.6093" transform="rotate(138.755 19.0308 65.6815)" fill="#DBDBDB"/>
<circle cx="45.5554" cy="95.932" r="1.6093" transform="rotate(138.755 45.5554 95.932)" fill="#DBDBDB"/>
<circle cx="24.3357" cy="71.7318" r="1.6093" transform="rotate(138.755 24.3357 71.7318)" fill="#DBDBDB"/>
<circle cx="34.9455" cy="83.8314" r="1.6093" transform="rotate(138.755 34.9455 83.8314)" fill="#DBDBDB"/>
<circle cx="13.7258" cy="59.6312" r="1.6093" transform="rotate(138.755 13.7258 59.6312)" fill="#DBDBDB"/>
<circle cx="45.4153" cy="106.757" r="1.6093" transform="rotate(138.755 45.4153 106.757)" fill="#DBDBDB"/>
<circle cx="24.1956" cy="82.556" r="1.6093" transform="rotate(138.755 24.1956 82.556)" fill="#DBDBDB"/>
<circle cx="34.8054" cy="94.6561" r="1.6093" transform="rotate(138.755 34.8054 94.6561)" fill="#DBDBDB"/>
<circle cx="13.5857" cy="70.4559" r="1.6093" transform="rotate(138.755 13.5857 70.4559)" fill="#DBDBDB"/>
<circle cx="40.1103" cy="100.706" r="1.6093" transform="rotate(138.755 40.1103 100.706)" fill="#DBDBDB"/>
<circle cx="18.8906" cy="76.5058" r="1.6093" transform="rotate(138.755 18.8906 76.5058)" fill="#DBDBDB"/>
<circle cx="29.5005" cy="88.6059" r="1.6093" transform="rotate(138.755 29.5005 88.6059)" fill="#DBDBDB"/>
<circle cx="8.28076" cy="64.4057" r="1.6093" transform="rotate(138.755 8.28076 64.4057)" fill="#DBDBDB"/>
<circle cx="39.9702" cy="111.531" r="1.6093" transform="rotate(138.755 39.9702 111.531)" fill="#DBDBDB"/>
<circle cx="18.7505" cy="87.3305" r="1.6093" transform="rotate(138.755 18.7505 87.3305)" fill="#DBDBDB"/>
<circle cx="29.3603" cy="99.4306" r="1.6093" transform="rotate(138.755 29.3603 99.4306)" fill="#DBDBDB"/>
<circle cx="8.14062" cy="75.2304" r="1.6093" transform="rotate(138.755 8.14062 75.2304)" fill="#DBDBDB"/>
<circle cx="34.6653" cy="105.481" r="1.6093" transform="rotate(138.755 34.6653 105.481)" fill="#DBDBDB"/>
<circle cx="13.4455" cy="81.2802" r="1.6093" transform="rotate(138.755 13.4455 81.2802)" fill="#DBDBDB"/>
<circle cx="24.0554" cy="93.3808" r="1.6093" transform="rotate(138.755 24.0554 93.3808)" fill="#DBDBDB"/>
<circle cx="2.83569" cy="69.1801" r="1.6093" transform="rotate(138.755 2.83569 69.1801)" fill="#DBDBDB"/>
</svg>
