<svg width="70" height="70" viewBox="0 0 70 70" fill="none" xmlns="http://www.w3.org/2000/svg">
<circle cx="35" cy="35" r="35" fill="#F9B707" fill-opacity="0.12"/>
<path d="M17.081 31.3168C17.8374 28.8543 19.2568 26.6475 21.1839 24.938C20.1354 24.0999 21.1839 18.89 21.1839 18.89C21.1839 18.89 25.3756 20.7463 26.1249 21.6148C26.1249 21.6148 29.3581 17.6919 38.7316 17.6919C48.1051 17.6919 56.9375 24.9391 56.9375 34.6107C56.9375 44.2824 49.9299 47.3671 49.9299 47.3671C49.5649 49.0736 49.0023 50.7318 48.2536 52.3081H44.54C43.9476 51.3967 43.4176 50.4461 42.9538 49.463C42.9538 49.463 39.9894 49.823 37.8631 49.823C36.3648 49.7925 34.872 49.6321 33.4014 49.3438C33.2744 50.397 32.9164 51.4093 32.3529 52.3081H28.3108C27.053 51.2304 26.4241 47.8464 26.4241 47.8464C26.4241 47.8464 16.2429 43.235 14.0863 40.4788C12.9174 38.2929 13.067 33.4419 13.067 33.4419C14.1991 32.3993 15.5814 31.6668 17.0799 31.3156L17.081 31.3168Z" stroke="#F9B707" stroke-linecap="round" stroke-linejoin="round"/>
<path d="M29.9871 23.5014C32.3862 21.7764 35.3016 20.9209 38.2524 21.0759C41.4764 21.0228 44.6299 22.0216 47.2356 23.921" stroke="#F9B707" stroke-linecap="round" stroke-linejoin="round"/>
<path d="M21.0635 32.7894C21.5295 32.7894 21.9072 32.4116 21.9072 31.9456C21.9072 31.4796 21.5295 31.1019 21.0635 31.1019C20.5975 31.1019 20.2197 31.4796 20.2197 31.9456C20.2197 32.4116 20.5975 32.7894 21.0635 32.7894Z" fill="#F9B707"/>
</svg>
