<svg width="35" height="35" viewBox="0 0 35 35" fill="#F9B707" xmlns="http://www.w3.org/2000/svg">
<path d="M33.75 0H1.25C0.558594 0 0 0.710937 0 1.59091V33.4091C0 34.2891 0.558594 35 1.25 35H33.75C34.4414 35 35 34.2891 35 33.4091V1.59091C35 0.710937 34.4414 0 33.75 0ZM32.1875 5.50852V31.4205H2.8125V5.50852L1.73438 4.43963L3.26953 1.92898L4.94141 3.58452H30.0625L31.7344 1.92898L33.2695 4.43963L32.1875 5.50852ZM30.0625 3.57955L17.5 16.0085L4.9375 3.57955L3.26563 1.92401L1.73047 4.43466L2.80859 5.50355L16.1523 18.7081C16.5361 19.0875 17.0082 19.2935 17.4941 19.2935C17.9801 19.2935 18.4522 19.0875 18.8359 18.7081L32.1875 5.50852L33.2656 4.43963L31.7305 1.92898L30.0625 3.57955Z" fill="#F9B707"/>
</svg>
