<svg width="220" height="147" viewBox="0 0 260 197" fill="none" xmlns="http://www.w3.org/2000/svg">
<circle cx="43.7413" cy="4.47472" r="3.53554" transform="rotate(18.501 43.7413 4.47472)" fill="#DBDBDB" fill-opacity="0.5"/>
<circle cx="21.3032" cy="71.5311" r="3.53554" transform="rotate(18.501 21.3032 71.5311)" fill="#DBDBDB" fill-opacity="0.5"/>
<circle cx="32.5223" cy="38.0028" r="3.53554" transform="rotate(18.501 32.5223 38.0028)" fill="#DBDBDB" fill-opacity="0.5"/>
<circle cx="10.0842" cy="105.059" r="3.53554" transform="rotate(18.501 10.0842 105.059)" fill="#DBDBDB" fill-opacity="0.5"/>
<circle cx="38.1318" cy="21.2389" r="3.53554" transform="rotate(18.501 38.1318 21.2389)" fill="#DBDBDB" fill-opacity="0.5"/>
<circle cx="15.6937" cy="88.295" r="3.53554" transform="rotate(18.501 15.6937 88.295)" fill="#DBDBDB" fill-opacity="0.5"/>
<circle cx="26.9127" cy="54.767" r="3.53554" transform="rotate(18.501 26.9127 54.767)" fill="#DBDBDB" fill-opacity="0.5"/>
<circle cx="4.47481" cy="121.823" r="3.53554" transform="rotate(18.501 4.47481 121.823)" fill="#DBDBDB" fill-opacity="0.5"/>
<circle cx="43.7413" cy="4.47472" r="3.53554" transform="rotate(18.501 43.7413 4.47472)" fill="#DBDBDB" fill-opacity="0.5"/>
<circle cx="21.3032" cy="71.5311" r="3.53554" transform="rotate(18.501 21.3032 71.5311)" fill="#DBDBDB" fill-opacity="0.5"/>
<circle cx="32.5223" cy="38.0028" r="3.53554" transform="rotate(18.501 32.5223 38.0028)" fill="#DBDBDB" fill-opacity="0.5"/>
<circle cx="10.0842" cy="105.059" r="3.53554" transform="rotate(18.501 10.0842 105.059)" fill="#DBDBDB" fill-opacity="0.5"/>
<circle cx="38.1318" cy="21.2389" r="3.53554" transform="rotate(18.501 38.1318 21.2389)" fill="#DBDBDB" fill-opacity="0.5"/>
<circle cx="15.6937" cy="88.295" r="3.53554" transform="rotate(18.501 15.6937 88.295)" fill="#DBDBDB" fill-opacity="0.5"/>
<circle cx="26.9127" cy="54.767" r="3.53554" transform="rotate(18.501 26.9127 54.767)" fill="#DBDBDB" fill-opacity="0.5"/>
<circle cx="4.47481" cy="121.823" r="3.53554" transform="rotate(18.501 4.47481 121.823)" fill="#DBDBDB" fill-opacity="0.5"/>
<circle cx="58.8289" cy="9.5233" r="3.53554" transform="rotate(18.501 58.8289 9.5233)" fill="#DBDBDB" fill-opacity="0.5"/>
<circle r="3.53554" transform="matrix(0.948321 0.317313 -0.317329 0.948316 36.3909 76.5797)" fill="#DBDBDB" fill-opacity="0.5"/>
<circle cx="47.6098" cy="43.0514" r="3.53554" transform="rotate(18.501 47.6098 43.0514)" fill="#DBDBDB" fill-opacity="0.5"/>
<circle cx="25.172" cy="110.108" r="3.53554" transform="rotate(18.501 25.172 110.108)" fill="#DBDBDB" fill-opacity="0.5"/>
<circle cx="53.2194" cy="26.2872" r="3.53554" transform="rotate(18.501 53.2194 26.2872)" fill="#DBDBDB" fill-opacity="0.5"/>
<circle cx="30.7814" cy="93.3436" r="3.53554" transform="rotate(18.501 30.7814 93.3436)" fill="#DBDBDB" fill-opacity="0.5"/>
<circle cx="42.0004" cy="59.8155" r="3.53554" transform="rotate(18.501 42.0004 59.8155)" fill="#DBDBDB" fill-opacity="0.5"/>
<circle cx="19.5625" cy="126.872" r="3.53554" transform="rotate(18.501 19.5625 126.872)" fill="#DBDBDB" fill-opacity="0.5"/>
<circle cx="73.9166" cy="14.5719" r="3.53554" transform="rotate(18.501 73.9166 14.5719)" fill="#DBDBDB" fill-opacity="0.5"/>
<circle cx="51.4786" cy="81.628" r="3.53554" transform="rotate(18.501 51.4786 81.628)" fill="#DBDBDB" fill-opacity="0.5"/>
<circle cx="62.6977" cy="48.1" r="3.53554" transform="rotate(18.501 62.6977 48.1)" fill="#DBDBDB" fill-opacity="0.5"/>
<circle cx="40.2597" cy="115.156" r="3.53554" transform="rotate(18.501 40.2597 115.156)" fill="#DBDBDB" fill-opacity="0.5"/>
<circle cx="68.3072" cy="31.3358" r="3.53554" transform="rotate(18.501 68.3072 31.3358)" fill="#DBDBDB" fill-opacity="0.5"/>
<circle cx="45.8691" cy="98.3922" r="3.53554" transform="rotate(18.501 45.8691 98.3922)" fill="#DBDBDB" fill-opacity="0.5"/>
<circle cx="57.088" cy="64.8641" r="3.53554" transform="rotate(18.501 57.088 64.8641)" fill="#DBDBDB" fill-opacity="0.5"/>
<circle cx="34.6502" cy="131.92" r="3.53554" transform="rotate(18.501 34.6502 131.92)" fill="#DBDBDB" fill-opacity="0.5"/>
<circle cx="89.0043" cy="19.6202" r="3.53554" transform="rotate(18.501 89.0043 19.6202)" fill="#DBDBDB" fill-opacity="0.5"/>
<circle cx="66.5662" cy="86.6766" r="3.53554" transform="rotate(18.501 66.5662 86.6766)" fill="#DBDBDB" fill-opacity="0.5"/>
<circle cx="77.7852" cy="53.1485" r="3.53554" transform="rotate(18.501 77.7852 53.1485)" fill="#DBDBDB" fill-opacity="0.5"/>
<circle cx="55.3473" cy="120.205" r="3.53554" transform="rotate(18.501 55.3473 120.205)" fill="#DBDBDB" fill-opacity="0.5"/>
<circle cx="83.3948" cy="36.3844" r="3.53554" transform="rotate(18.501 83.3948 36.3844)" fill="#DBDBDB" fill-opacity="0.5"/>
<circle cx="60.9567" cy="103.441" r="3.53554" transform="rotate(18.501 60.9567 103.441)" fill="#DBDBDB" fill-opacity="0.5"/>
<circle cx="72.1757" cy="69.9127" r="3.53554" transform="rotate(18.501 72.1757 69.9127)" fill="#DBDBDB" fill-opacity="0.5"/>
<circle cx="49.7378" cy="136.969" r="3.53554" transform="rotate(18.501 49.7378 136.969)" fill="#DBDBDB" fill-opacity="0.5"/>
<circle cx="104.092" cy="24.6688" r="3.53554" transform="rotate(18.501 104.092 24.6688)" fill="#DBDBDB" fill-opacity="0.5"/>
<circle cx="81.654" cy="91.7252" r="3.53554" transform="rotate(18.501 81.654 91.7252)" fill="#DBDBDB" fill-opacity="0.5"/>
<circle cx="92.873" cy="58.1971" r="3.53554" transform="rotate(18.501 92.873 58.1971)" fill="#DBDBDB" fill-opacity="0.5"/>
<circle cx="70.435" cy="125.253" r="3.53554" transform="rotate(18.501 70.435 125.253)" fill="#DBDBDB" fill-opacity="0.5"/>
<circle cx="98.4825" cy="41.433" r="3.53554" transform="rotate(18.501 98.4825 41.433)" fill="#DBDBDB" fill-opacity="0.5"/>
<circle cx="76.0445" cy="108.489" r="3.53554" transform="rotate(18.501 76.0445 108.489)" fill="#DBDBDB" fill-opacity="0.5"/>
<circle cx="87.2634" cy="74.9613" r="3.53554" transform="rotate(18.501 87.2634 74.9613)" fill="#DBDBDB" fill-opacity="0.5"/>
<circle cx="64.8255" cy="142.017" r="3.53554" transform="rotate(18.501 64.8255 142.017)" fill="#DBDBDB" fill-opacity="0.5"/>
<circle cx="119.18" cy="29.7174" r="3.53554" transform="rotate(18.501 119.18 29.7174)" fill="#DBDBDB" fill-opacity="0.5"/>
<circle cx="96.7416" cy="96.7738" r="3.53554" transform="rotate(18.501 96.7416 96.7738)" fill="#DBDBDB" fill-opacity="0.5"/>
<circle cx="107.961" cy="63.2457" r="3.53554" transform="rotate(18.501 107.961 63.2457)" fill="#DBDBDB" fill-opacity="0.5"/>
<circle cx="85.5227" cy="130.302" r="3.53554" transform="rotate(18.501 85.5227 130.302)" fill="#DBDBDB" fill-opacity="0.5"/>
<circle cx="113.57" cy="46.4816" r="3.53554" transform="rotate(18.501 113.57 46.4816)" fill="#DBDBDB" fill-opacity="0.5"/>
<circle r="3.53554" transform="matrix(0.948321 0.317313 -0.317329 0.948316 91.1321 113.538)" fill="#DBDBDB" fill-opacity="0.5"/>
<circle cx="102.351" cy="80.0096" r="3.53554" transform="rotate(18.501 102.351 80.0096)" fill="#DBDBDB" fill-opacity="0.5"/>
<circle cx="79.9132" cy="147.066" r="3.53554" transform="rotate(18.501 79.9132 147.066)" fill="#DBDBDB" fill-opacity="0.5"/>
<circle cx="134.267" cy="34.766" r="3.53554" transform="rotate(18.501 134.267 34.766)" fill="#DBDBDB" fill-opacity="0.5"/>
<circle cx="111.829" cy="101.822" r="3.53554" transform="rotate(18.501 111.829 101.822)" fill="#DBDBDB" fill-opacity="0.5"/>
<circle cx="123.048" cy="68.2941" r="3.53554" transform="rotate(18.501 123.048 68.2941)" fill="#DBDBDB" fill-opacity="0.5"/>
<circle cx="100.61" cy="135.35" r="3.53554" transform="rotate(18.501 100.61 135.35)" fill="#DBDBDB" fill-opacity="0.5"/>
<circle cx="128.658" cy="51.5301" r="3.53554" transform="rotate(18.501 128.658 51.5301)" fill="#DBDBDB" fill-opacity="0.5"/>
<circle cx="106.22" cy="118.587" r="3.53554" transform="rotate(18.501 106.22 118.587)" fill="#DBDBDB" fill-opacity="0.5"/>
<circle cx="117.439" cy="85.0582" r="3.53554" transform="rotate(18.501 117.439 85.0582)" fill="#DBDBDB" fill-opacity="0.5"/>
<circle cx="95.0009" cy="152.115" r="3.53554" transform="rotate(18.501 95.0009 152.115)" fill="#DBDBDB" fill-opacity="0.5"/>
<circle cx="149.355" cy="39.8146" r="3.53554" transform="rotate(18.501 149.355 39.8146)" fill="#DBDBDB" fill-opacity="0.5"/>
<circle cx="126.917" cy="106.871" r="3.53554" transform="rotate(18.501 126.917 106.871)" fill="#DBDBDB" fill-opacity="0.5"/>
<circle cx="138.136" cy="73.3426" r="3.53554" transform="rotate(18.501 138.136 73.3426)" fill="#DBDBDB" fill-opacity="0.5"/>
<circle cx="115.698" cy="140.399" r="3.53554" transform="rotate(18.501 115.698 140.399)" fill="#DBDBDB" fill-opacity="0.5"/>
<circle r="3.53554" transform="matrix(0.948321 0.317313 -0.317329 0.948316 143.745 56.5787)" fill="#DBDBDB" fill-opacity="0.5"/>
<circle cx="121.307" cy="123.635" r="3.53554" transform="rotate(18.501 121.307 123.635)" fill="#DBDBDB" fill-opacity="0.5"/>
<circle cx="132.526" cy="90.1068" r="3.53554" transform="rotate(18.501 132.526 90.1068)" fill="#DBDBDB" fill-opacity="0.5"/>
<circle r="3.53554" transform="matrix(0.948321 0.317313 -0.317329 0.948316 110.089 157.163)" fill="#DBDBDB" fill-opacity="0.5"/>
<circle cx="164.443" cy="44.8631" r="3.53554" transform="rotate(18.501 164.443 44.8631)" fill="#DBDBDB" fill-opacity="0.5"/>
<circle r="3.53554" transform="matrix(0.948321 0.317313 -0.317329 0.948316 142.005 111.92)" fill="#DBDBDB" fill-opacity="0.5"/>
<circle cx="153.224" cy="78.3912" r="3.53554" transform="rotate(18.501 153.224 78.3912)" fill="#DBDBDB" fill-opacity="0.5"/>
<circle cx="130.786" cy="145.448" r="3.53554" transform="rotate(18.501 130.786 145.448)" fill="#DBDBDB" fill-opacity="0.5"/>
<circle cx="158.833" cy="61.6271" r="3.53554" transform="rotate(18.501 158.833 61.6271)" fill="#DBDBDB" fill-opacity="0.5"/>
<circle cx="136.395" cy="128.683" r="3.53554" transform="rotate(18.501 136.395 128.683)" fill="#DBDBDB" fill-opacity="0.5"/>
<circle cx="147.614" cy="95.1554" r="3.53554" transform="rotate(18.501 147.614 95.1554)" fill="#DBDBDB" fill-opacity="0.5"/>
<circle cx="125.176" cy="162.212" r="3.53554" transform="rotate(18.501 125.176 162.212)" fill="#DBDBDB" fill-opacity="0.5"/>
<circle cx="179.53" cy="49.9117" r="3.53554" transform="rotate(18.501 179.53 49.9117)" fill="#DBDBDB" fill-opacity="0.5"/>
<circle cx="157.092" cy="116.968" r="3.53554" transform="rotate(18.501 157.092 116.968)" fill="#DBDBDB" fill-opacity="0.5"/>
<circle cx="168.311" cy="83.4398" r="3.53554" transform="rotate(18.501 168.311 83.4398)" fill="#DBDBDB" fill-opacity="0.5"/>
<circle cx="145.873" cy="150.496" r="3.53554" transform="rotate(18.501 145.873 150.496)" fill="#DBDBDB" fill-opacity="0.5"/>
<circle cx="173.921" cy="66.6756" r="3.53554" transform="rotate(18.501 173.921 66.6756)" fill="#DBDBDB" fill-opacity="0.5"/>
<circle cx="151.483" cy="133.732" r="3.53554" transform="rotate(18.501 151.483 133.732)" fill="#DBDBDB" fill-opacity="0.5"/>
<circle cx="162.702" cy="100.204" r="3.53554" transform="rotate(18.501 162.702 100.204)" fill="#DBDBDB" fill-opacity="0.5"/>
<circle cx="140.264" cy="167.26" r="3.53554" transform="rotate(18.501 140.264 167.26)" fill="#DBDBDB" fill-opacity="0.5"/>
<circle cx="194.618" cy="54.9601" r="3.53554" transform="rotate(18.501 194.618 54.9601)" fill="#DBDBDB" fill-opacity="0.5"/>
<circle cx="172.18" cy="122.016" r="3.53554" transform="rotate(18.501 172.18 122.016)" fill="#DBDBDB" fill-opacity="0.5"/>
<circle cx="183.399" cy="88.4884" r="3.53554" transform="rotate(18.501 183.399 88.4884)" fill="#DBDBDB" fill-opacity="0.5"/>
<circle cx="160.961" cy="155.545" r="3.53554" transform="rotate(18.501 160.961 155.545)" fill="#DBDBDB" fill-opacity="0.5"/>
<circle cx="189.009" cy="71.7242" r="3.53554" transform="rotate(18.501 189.009 71.7242)" fill="#DBDBDB" fill-opacity="0.5"/>
<circle cx="166.571" cy="138.781" r="3.53554" transform="rotate(18.501 166.571 138.781)" fill="#DBDBDB" fill-opacity="0.5"/>
<circle cx="177.789" cy="105.253" r="3.53554" transform="rotate(18.501 177.789 105.253)" fill="#DBDBDB" fill-opacity="0.5"/>
<circle r="3.53554" transform="matrix(0.948321 0.317313 -0.317329 0.948316 155.351 172.309)" fill="#DBDBDB" fill-opacity="0.5"/>
<circle cx="209.706" cy="60.0087" r="3.53554" transform="rotate(18.501 209.706 60.0087)" fill="#DBDBDB" fill-opacity="0.5"/>
<circle cx="187.268" cy="127.065" r="3.53554" transform="rotate(18.501 187.268 127.065)" fill="#DBDBDB" fill-opacity="0.5"/>
<circle cx="198.487" cy="93.537" r="3.53554" transform="rotate(18.501 198.487 93.537)" fill="#DBDBDB" fill-opacity="0.5"/>
<circle r="3.53554" transform="matrix(0.948321 0.317313 -0.317329 0.948316 176.049 160.593)" fill="#DBDBDB" fill-opacity="0.5"/>
<circle cx="204.096" cy="76.7728" r="3.53554" transform="rotate(18.501 204.096 76.7728)" fill="#DBDBDB" fill-opacity="0.5"/>
<circle cx="181.658" cy="143.829" r="3.53554" transform="rotate(18.501 181.658 143.829)" fill="#DBDBDB" fill-opacity="0.5"/>
<circle cx="192.877" cy="110.301" r="3.53554" transform="rotate(18.501 192.877 110.301)" fill="#DBDBDB" fill-opacity="0.5"/>
<circle cx="170.439" cy="177.357" r="3.53554" transform="rotate(18.501 170.439 177.357)" fill="#DBDBDB" fill-opacity="0.5"/>
<circle cx="224.793" cy="65.0572" r="3.53554" transform="rotate(18.501 224.793 65.0572)" fill="#DBDBDB" fill-opacity="0.5"/>
<circle cx="202.355" cy="132.114" r="3.53554" transform="rotate(18.501 202.355 132.114)" fill="#DBDBDB" fill-opacity="0.5"/>
<circle cx="213.574" cy="98.5856" r="3.53554" transform="rotate(18.501 213.574 98.5856)" fill="#DBDBDB" fill-opacity="0.5"/>
<circle cx="191.136" cy="165.642" r="3.53554" transform="rotate(18.501 191.136 165.642)" fill="#DBDBDB" fill-opacity="0.5"/>
<circle cx="219.184" cy="81.8214" r="3.53554" transform="rotate(18.501 219.184 81.8214)" fill="#DBDBDB" fill-opacity="0.5"/>
<circle cx="196.746" cy="148.878" r="3.53554" transform="rotate(18.501 196.746 148.878)" fill="#DBDBDB" fill-opacity="0.5"/>
<circle cx="207.965" cy="115.349" r="3.53554" transform="rotate(18.501 207.965 115.349)" fill="#DBDBDB" fill-opacity="0.5"/>
<circle cx="185.527" cy="182.406" r="3.53554" transform="rotate(18.501 185.527 182.406)" fill="#DBDBDB" fill-opacity="0.5"/>
<circle cx="239.881" cy="70.1058" r="3.53554" transform="rotate(18.501 239.881 70.1058)" fill="#DBDBDB" fill-opacity="0.5"/>
<circle cx="217.443" cy="137.162" r="3.53554" transform="rotate(18.501 217.443 137.162)" fill="#DBDBDB" fill-opacity="0.5"/>
<circle cx="228.662" cy="103.634" r="3.53554" transform="rotate(18.501 228.662 103.634)" fill="#DBDBDB" fill-opacity="0.5"/>
<circle cx="206.224" cy="170.69" r="3.53554" transform="rotate(18.501 206.224 170.69)" fill="#DBDBDB" fill-opacity="0.5"/>
<circle cx="234.271" cy="86.87" r="3.53554" transform="rotate(18.501 234.271 86.87)" fill="#DBDBDB" fill-opacity="0.5"/>
<circle cx="211.834" cy="153.926" r="3.53554" transform="rotate(18.501 211.834 153.926)" fill="#DBDBDB" fill-opacity="0.5"/>
<circle cx="223.052" cy="120.398" r="3.53554" transform="rotate(18.501 223.052 120.398)" fill="#DBDBDB" fill-opacity="0.5"/>
<circle cx="200.614" cy="187.454" r="3.53554" transform="rotate(18.501 200.614 187.454)" fill="#DBDBDB" fill-opacity="0.5"/>
<circle cx="254.969" cy="75.1544" r="3.53554" transform="rotate(18.501 254.969 75.1544)" fill="#DBDBDB" fill-opacity="0.5"/>
<circle r="3.53554" transform="matrix(0.948321 0.317313 -0.317329 0.948316 232.531 142.211)" fill="#DBDBDB" fill-opacity="0.5"/>
<circle cx="243.75" cy="108.682" r="3.53554" transform="rotate(18.501 243.75 108.682)" fill="#DBDBDB" fill-opacity="0.5"/>
<circle cx="221.312" cy="175.739" r="3.53554" transform="rotate(18.501 221.312 175.739)" fill="#DBDBDB" fill-opacity="0.5"/>
<circle cx="249.359" cy="91.9186" r="3.53554" transform="rotate(18.501 249.359 91.9186)" fill="#DBDBDB" fill-opacity="0.5"/>
<circle r="3.53554" transform="matrix(0.948321 0.317313 -0.317329 0.948316 226.921 158.975)" fill="#DBDBDB" fill-opacity="0.5"/>
<circle cx="238.14" cy="125.447" r="3.53554" transform="rotate(18.501 238.14 125.447)" fill="#DBDBDB" fill-opacity="0.5"/>
<circle cx="215.702" cy="192.503" r="3.53554" transform="rotate(18.501 215.702 192.503)" fill="#DBDBDB" fill-opacity="0.5"/>
</svg>
