<svg width="97" height="74" viewBox="0 0 97 74" fill="none" xmlns="http://www.w3.org/2000/svg">
<circle cx="16.2889" cy="1.66623" r="1.31642" transform="rotate(18.501 16.2889 1.66623)" fill="#DBDBDB" fill-opacity="0.5"/>
<circle cx="7.93295" cy="26.6377" r="1.31642" transform="rotate(18.501 7.93295 26.6377)" fill="#DBDBDB" fill-opacity="0.5"/>
<circle cx="12.1109" cy="14.1518" r="1.31642" transform="rotate(18.501 12.1109 14.1518)" fill="#DBDBDB" fill-opacity="0.5"/>
<circle r="1.31642" transform="matrix(0.948323 0.317305 -0.317336 0.948313 3.75508 39.1234)" fill="#DBDBDB" fill-opacity="0.5"/>
<circle cx="14.1998" cy="7.90903" r="1.31642" transform="rotate(18.501 14.1998 7.90903)" fill="#DBDBDB" fill-opacity="0.5"/>
<circle cx="5.84408" cy="32.8805" r="1.31642" transform="rotate(18.501 5.84408 32.8805)" fill="#DBDBDB" fill-opacity="0.5"/>
<circle cx="10.0218" cy="20.3947" r="1.31642" transform="rotate(18.501 10.0218 20.3947)" fill="#DBDBDB" fill-opacity="0.5"/>
<circle cx="1.66611" cy="45.3661" r="1.31642" transform="rotate(18.501 1.66611 45.3661)" fill="#DBDBDB" fill-opacity="0.5"/>
<circle cx="16.2889" cy="1.66623" r="1.31642" transform="rotate(18.501 16.2889 1.66623)" fill="#DBDBDB" fill-opacity="0.5"/>
<circle cx="7.93295" cy="26.6377" r="1.31642" transform="rotate(18.501 7.93295 26.6377)" fill="#DBDBDB" fill-opacity="0.5"/>
<circle cx="12.1109" cy="14.1518" r="1.31642" transform="rotate(18.501 12.1109 14.1518)" fill="#DBDBDB" fill-opacity="0.5"/>
<circle r="1.31642" transform="matrix(0.948323 0.317305 -0.317336 0.948313 3.75508 39.1234)" fill="#DBDBDB" fill-opacity="0.5"/>
<circle cx="14.1998" cy="7.90903" r="1.31642" transform="rotate(18.501 14.1998 7.90903)" fill="#DBDBDB" fill-opacity="0.5"/>
<circle cx="5.84408" cy="32.8805" r="1.31642" transform="rotate(18.501 5.84408 32.8805)" fill="#DBDBDB" fill-opacity="0.5"/>
<circle cx="10.0218" cy="20.3947" r="1.31642" transform="rotate(18.501 10.0218 20.3947)" fill="#DBDBDB" fill-opacity="0.5"/>
<circle cx="1.66611" cy="45.3661" r="1.31642" transform="rotate(18.501 1.66611 45.3661)" fill="#DBDBDB" fill-opacity="0.5"/>
<circle cx="21.9073" cy="3.54624" r="1.31642" transform="rotate(18.501 21.9073 3.54624)" fill="#DBDBDB" fill-opacity="0.5"/>
<ellipse rx="1.31642" ry="1.31642" transform="matrix(0.948321 0.317313 -0.317329 0.948316 13.5515 28.5177)" fill="#DBDBDB" fill-opacity="0.5"/>
<circle cx="17.7295" cy="16.032" r="1.31642" transform="rotate(18.501 17.7295 16.032)" fill="#DBDBDB" fill-opacity="0.5"/>
<circle cx="9.37375" cy="41.0033" r="1.31642" transform="rotate(18.501 9.37375 41.0033)" fill="#DBDBDB" fill-opacity="0.5"/>
<circle cx="19.8184" cy="9.78903" r="1.31642" transform="rotate(18.501 19.8184 9.78903)" fill="#DBDBDB" fill-opacity="0.5"/>
<circle cx="11.4626" cy="34.7605" r="1.31642" transform="rotate(18.501 11.4626 34.7605)" fill="#DBDBDB" fill-opacity="0.5"/>
<circle cx="15.6405" cy="22.2748" r="1.31642" transform="rotate(18.501 15.6405 22.2748)" fill="#DBDBDB" fill-opacity="0.5"/>
<circle cx="7.28464" cy="47.2462" r="1.31642" transform="rotate(18.501 7.28464 47.2462)" fill="#DBDBDB" fill-opacity="0.5"/>
<circle cx="27.5258" cy="5.42624" r="1.31642" transform="rotate(18.501 27.5258 5.42624)" fill="#DBDBDB" fill-opacity="0.5"/>
<circle cx="19.1701" cy="30.3977" r="1.31642" transform="rotate(18.501 19.1701 30.3977)" fill="#DBDBDB" fill-opacity="0.5"/>
<circle cx="23.348" cy="17.912" r="1.31642" transform="rotate(18.501 23.348 17.912)" fill="#DBDBDB" fill-opacity="0.5"/>
<circle cx="14.9923" cy="42.8834" r="1.31642" transform="rotate(18.501 14.9923 42.8834)" fill="#DBDBDB" fill-opacity="0.5"/>
<circle cx="25.437" cy="11.6692" r="1.31642" transform="rotate(18.501 25.437 11.6692)" fill="#DBDBDB" fill-opacity="0.5"/>
<circle cx="17.0811" cy="36.6405" r="1.31642" transform="rotate(18.501 17.0811 36.6405)" fill="#DBDBDB" fill-opacity="0.5"/>
<circle cx="21.259" cy="24.1548" r="1.31642" transform="rotate(18.501 21.259 24.1548)" fill="#DBDBDB" fill-opacity="0.5"/>
<circle cx="12.9033" cy="49.1262" r="1.31642" transform="rotate(18.501 12.9033 49.1262)" fill="#DBDBDB" fill-opacity="0.5"/>
<circle cx="33.1444" cy="7.30625" r="1.31642" transform="rotate(18.501 33.1444 7.30625)" fill="#DBDBDB" fill-opacity="0.5"/>
<circle cx="24.7887" cy="32.2778" r="1.31642" transform="rotate(18.501 24.7887 32.2778)" fill="#DBDBDB" fill-opacity="0.5"/>
<circle cx="28.9665" cy="19.7921" r="1.31642" transform="rotate(18.501 28.9665 19.7921)" fill="#DBDBDB" fill-opacity="0.5"/>
<circle cx="20.6108" cy="44.7634" r="1.31642" transform="rotate(18.501 20.6108 44.7634)" fill="#DBDBDB" fill-opacity="0.5"/>
<circle cx="31.0555" cy="13.5492" r="1.31642" transform="rotate(18.501 31.0555 13.5492)" fill="#DBDBDB" fill-opacity="0.5"/>
<circle cx="22.6997" cy="38.5206" r="1.31642" transform="rotate(18.501 22.6997 38.5206)" fill="#DBDBDB" fill-opacity="0.5"/>
<circle cx="26.8777" cy="26.0349" r="1.31642" transform="rotate(18.501 26.8777 26.0349)" fill="#DBDBDB" fill-opacity="0.5"/>
<circle cx="18.5218" cy="51.0062" r="1.31642" transform="rotate(18.501 18.5218 51.0062)" fill="#DBDBDB" fill-opacity="0.5"/>
<circle cx="38.763" cy="9.18637" r="1.31642" transform="rotate(18.501 38.763 9.18637)" fill="#DBDBDB" fill-opacity="0.5"/>
<circle cx="30.4072" cy="34.1577" r="1.31642" transform="rotate(18.501 30.4072 34.1577)" fill="#DBDBDB" fill-opacity="0.5"/>
<circle cx="34.5852" cy="21.672" r="1.31642" transform="rotate(18.501 34.5852 21.672)" fill="#DBDBDB" fill-opacity="0.5"/>
<circle cx="26.2293" cy="46.6434" r="1.31642" transform="rotate(18.501 26.2293 46.6434)" fill="#DBDBDB" fill-opacity="0.5"/>
<circle cx="36.674" cy="15.4292" r="1.31642" transform="rotate(18.501 36.674 15.4292)" fill="#DBDBDB" fill-opacity="0.5"/>
<circle cx="28.3183" cy="40.4006" r="1.31642" transform="rotate(18.501 28.3183 40.4006)" fill="#DBDBDB" fill-opacity="0.5"/>
<circle cx="32.4962" cy="27.9149" r="1.31642" transform="rotate(18.501 32.4962 27.9149)" fill="#DBDBDB" fill-opacity="0.5"/>
<circle cx="24.1405" cy="52.8863" r="1.31642" transform="rotate(18.501 24.1405 52.8863)" fill="#DBDBDB" fill-opacity="0.5"/>
<circle cx="44.3816" cy="11.0664" r="1.31642" transform="rotate(18.501 44.3816 11.0664)" fill="#DBDBDB" fill-opacity="0.5"/>
<circle cx="36.0257" cy="36.0378" r="1.31642" transform="rotate(18.501 36.0257 36.0378)" fill="#DBDBDB" fill-opacity="0.5"/>
<circle cx="40.2036" cy="23.5521" r="1.31642" transform="rotate(18.501 40.2036 23.5521)" fill="#DBDBDB" fill-opacity="0.5"/>
<circle cx="31.8479" cy="48.5234" r="1.31642" transform="rotate(18.501 31.8479 48.5234)" fill="#DBDBDB" fill-opacity="0.5"/>
<circle cx="42.2927" cy="17.3093" r="1.31642" transform="rotate(18.501 42.2927 17.3093)" fill="#DBDBDB" fill-opacity="0.5"/>
<ellipse rx="1.31642" ry="1.31642" transform="matrix(0.948321 0.317313 -0.317329 0.948316 33.9369 42.2807)" fill="#DBDBDB" fill-opacity="0.5"/>
<circle cx="38.1147" cy="29.795" r="1.31642" transform="rotate(18.501 38.1147 29.795)" fill="#DBDBDB" fill-opacity="0.5"/>
<circle cx="29.759" cy="54.7663" r="1.31642" transform="rotate(18.501 29.759 54.7663)" fill="#DBDBDB" fill-opacity="0.5"/>
<circle cx="50.0001" cy="12.9465" r="1.31642" transform="rotate(18.501 50.0001 12.9465)" fill="#DBDBDB" fill-opacity="0.5"/>
<circle cx="41.6444" cy="37.9179" r="1.31642" transform="rotate(18.501 41.6444 37.9179)" fill="#DBDBDB" fill-opacity="0.5"/>
<circle cx="45.8224" cy="25.4322" r="1.31642" transform="rotate(18.501 45.8224 25.4322)" fill="#DBDBDB" fill-opacity="0.5"/>
<circle cx="37.4664" cy="50.4035" r="1.31642" transform="rotate(18.501 37.4664 50.4035)" fill="#DBDBDB" fill-opacity="0.5"/>
<circle cx="47.9112" cy="19.1893" r="1.31642" transform="rotate(18.501 47.9112 19.1893)" fill="#DBDBDB" fill-opacity="0.5"/>
<circle cx="39.5554" cy="44.1607" r="1.31642" transform="rotate(18.501 39.5554 44.1607)" fill="#DBDBDB" fill-opacity="0.5"/>
<circle cx="43.7334" cy="31.675" r="1.31642" transform="rotate(18.501 43.7334 31.675)" fill="#DBDBDB" fill-opacity="0.5"/>
<circle cx="35.3775" cy="56.6463" r="1.31642" transform="rotate(18.501 35.3775 56.6463)" fill="#DBDBDB" fill-opacity="0.5"/>
<circle cx="55.6187" cy="14.8265" r="1.31642" transform="rotate(18.501 55.6187 14.8265)" fill="#DBDBDB" fill-opacity="0.5"/>
<circle cx="47.2629" cy="39.7979" r="1.31642" transform="rotate(18.501 47.2629 39.7979)" fill="#DBDBDB" fill-opacity="0.5"/>
<circle cx="51.4409" cy="27.3121" r="1.31642" transform="rotate(18.501 51.4409 27.3121)" fill="#DBDBDB" fill-opacity="0.5"/>
<circle cx="43.085" cy="52.2837" r="1.31642" transform="rotate(18.501 43.085 52.2837)" fill="#DBDBDB" fill-opacity="0.5"/>
<ellipse rx="1.31642" ry="1.31642" transform="matrix(0.948321 0.317313 -0.317329 0.948316 53.5297 21.0694)" fill="#DBDBDB" fill-opacity="0.5"/>
<circle cx="45.174" cy="46.0407" r="1.31642" transform="rotate(18.501 45.174 46.0407)" fill="#DBDBDB" fill-opacity="0.5"/>
<circle cx="49.3519" cy="33.555" r="1.31642" transform="rotate(18.501 49.3519 33.555)" fill="#DBDBDB" fill-opacity="0.5"/>
<ellipse rx="1.31642" ry="1.31642" transform="matrix(0.948321 0.317313 -0.317329 0.948316 40.9961 58.5264)" fill="#DBDBDB" fill-opacity="0.5"/>
<circle cx="61.2373" cy="16.7065" r="1.31642" transform="rotate(18.501 61.2373 16.7065)" fill="#DBDBDB" fill-opacity="0.5"/>
<ellipse rx="1.31642" ry="1.31642" transform="matrix(0.948321 0.317313 -0.317329 0.948316 52.8814 41.6779)" fill="#DBDBDB" fill-opacity="0.5"/>
<circle cx="57.0593" cy="29.1922" r="1.31642" transform="rotate(18.501 57.0593 29.1922)" fill="#DBDBDB" fill-opacity="0.5"/>
<circle cx="48.7036" cy="54.1635" r="1.31642" transform="rotate(18.501 48.7036 54.1635)" fill="#DBDBDB" fill-opacity="0.5"/>
<circle cx="59.1483" cy="22.9494" r="1.31642" transform="rotate(18.501 59.1483 22.9494)" fill="#DBDBDB" fill-opacity="0.5"/>
<circle cx="50.7926" cy="47.9207" r="1.31642" transform="rotate(18.501 50.7926 47.9207)" fill="#DBDBDB" fill-opacity="0.5"/>
<circle cx="54.9704" cy="35.4352" r="1.31642" transform="rotate(18.501 54.9704 35.4352)" fill="#DBDBDB" fill-opacity="0.5"/>
<circle cx="46.6146" cy="60.4065" r="1.31642" transform="rotate(18.501 46.6146 60.4065)" fill="#DBDBDB" fill-opacity="0.5"/>
<circle cx="66.8558" cy="18.5866" r="1.31642" transform="rotate(18.501 66.8558 18.5866)" fill="#DBDBDB" fill-opacity="0.5"/>
<circle cx="58.5" cy="43.558" r="1.31642" transform="rotate(18.501 58.5 43.558)" fill="#DBDBDB" fill-opacity="0.5"/>
<circle cx="62.6779" cy="31.0724" r="1.31642" transform="rotate(18.501 62.6779 31.0724)" fill="#DBDBDB" fill-opacity="0.5"/>
<circle cx="54.3221" cy="56.0437" r="1.31642" transform="rotate(18.501 54.3221 56.0437)" fill="#DBDBDB" fill-opacity="0.5"/>
<circle cx="64.7668" cy="24.8296" r="1.31642" transform="rotate(18.501 64.7668 24.8296)" fill="#DBDBDB" fill-opacity="0.5"/>
<circle cx="56.4111" cy="49.8009" r="1.31642" transform="rotate(18.501 56.4111 49.8009)" fill="#DBDBDB" fill-opacity="0.5"/>
<circle r="1.31642" transform="matrix(0.948323 0.317305 -0.317336 0.948313 60.5889 37.3153)" fill="#DBDBDB" fill-opacity="0.5"/>
<circle cx="52.2332" cy="62.2866" r="1.31642" transform="rotate(18.501 52.2332 62.2866)" fill="#DBDBDB" fill-opacity="0.5"/>
<circle cx="72.4745" cy="20.4666" r="1.31642" transform="rotate(18.501 72.4745 20.4666)" fill="#DBDBDB" fill-opacity="0.5"/>
<circle cx="64.1186" cy="45.4381" r="1.31642" transform="rotate(18.501 64.1186 45.4381)" fill="#DBDBDB" fill-opacity="0.5"/>
<circle r="1.31642" transform="matrix(0.948324 0.317303 -0.317339 0.948312 68.2965 32.9525)" fill="#DBDBDB" fill-opacity="0.5"/>
<circle cx="59.9408" cy="57.9238" r="1.31642" transform="rotate(18.501 59.9408 57.9238)" fill="#DBDBDB" fill-opacity="0.5"/>
<circle cx="70.3855" cy="26.7094" r="1.31642" transform="rotate(18.501 70.3855 26.7094)" fill="#DBDBDB" fill-opacity="0.5"/>
<circle cx="62.0296" cy="51.6809" r="1.31642" transform="rotate(18.501 62.0296 51.6809)" fill="#DBDBDB" fill-opacity="0.5"/>
<circle cx="66.2075" cy="39.1952" r="1.31642" transform="rotate(18.501 66.2075 39.1952)" fill="#DBDBDB" fill-opacity="0.5"/>
<ellipse rx="1.31642" ry="1.31642" transform="matrix(0.948321 0.317313 -0.317329 0.948316 57.8518 64.1667)" fill="#DBDBDB" fill-opacity="0.5"/>
<circle cx="78.093" cy="22.3467" r="1.31642" transform="rotate(18.501 78.093 22.3467)" fill="#DBDBDB" fill-opacity="0.5"/>
<circle r="1.31642" transform="matrix(0.948323 0.317305 -0.317336 0.948313 69.7371 47.3182)" fill="#DBDBDB" fill-opacity="0.5"/>
<circle cx="73.915" cy="34.8325" r="1.31642" transform="rotate(18.501 73.915 34.8325)" fill="#DBDBDB" fill-opacity="0.5"/>
<ellipse rx="1.31642" ry="1.31642" transform="matrix(0.948321 0.317313 -0.317329 0.948316 65.5593 59.8039)" fill="#DBDBDB" fill-opacity="0.5"/>
<circle cx="76.0039" cy="28.5896" r="1.31642" transform="rotate(18.501 76.0039 28.5896)" fill="#DBDBDB" fill-opacity="0.5"/>
<circle cx="67.6482" cy="53.561" r="1.31642" transform="rotate(18.501 67.6482 53.561)" fill="#DBDBDB" fill-opacity="0.5"/>
<circle cx="71.826" cy="41.0753" r="1.31642" transform="rotate(18.501 71.826 41.0753)" fill="#DBDBDB" fill-opacity="0.5"/>
<circle cx="63.4703" cy="66.0466" r="1.31642" transform="rotate(18.501 63.4703 66.0466)" fill="#DBDBDB" fill-opacity="0.5"/>
<circle cx="83.7115" cy="24.2268" r="1.31642" transform="rotate(18.501 83.7115 24.2268)" fill="#DBDBDB" fill-opacity="0.5"/>
<circle cx="75.3557" cy="49.1981" r="1.31642" transform="rotate(18.501 75.3557 49.1981)" fill="#DBDBDB" fill-opacity="0.5"/>
<circle cx="79.5337" cy="36.7125" r="1.31642" transform="rotate(18.501 79.5337 36.7125)" fill="#DBDBDB" fill-opacity="0.5"/>
<circle cx="71.1778" cy="61.6838" r="1.31642" transform="rotate(18.501 71.1778 61.6838)" fill="#DBDBDB" fill-opacity="0.5"/>
<circle cx="81.6227" cy="30.4697" r="1.31642" transform="rotate(18.501 81.6227 30.4697)" fill="#DBDBDB" fill-opacity="0.5"/>
<circle cx="73.2668" cy="55.441" r="1.31642" transform="rotate(18.501 73.2668 55.441)" fill="#DBDBDB" fill-opacity="0.5"/>
<circle r="1.31642" transform="matrix(0.948324 0.317303 -0.317339 0.948312 77.4447 42.9554)" fill="#DBDBDB" fill-opacity="0.5"/>
<circle cx="69.0888" cy="67.9267" r="1.31642" transform="rotate(18.501 69.0888 67.9267)" fill="#DBDBDB" fill-opacity="0.5"/>
<circle cx="89.3314" cy="26.1075" r="1.31642" transform="rotate(18.501 89.3314 26.1075)" fill="#DBDBDB" fill-opacity="0.5"/>
<circle cx="80.9756" cy="51.0789" r="1.31642" transform="rotate(18.501 80.9756 51.0789)" fill="#DBDBDB" fill-opacity="0.5"/>
<circle cx="85.1535" cy="38.5932" r="1.31642" transform="rotate(18.501 85.1535 38.5932)" fill="#DBDBDB" fill-opacity="0.5"/>
<circle cx="76.7977" cy="63.5645" r="1.31642" transform="rotate(18.501 76.7977 63.5645)" fill="#DBDBDB" fill-opacity="0.5"/>
<circle cx="87.2424" cy="32.3503" r="1.31642" transform="rotate(18.501 87.2424 32.3503)" fill="#DBDBDB" fill-opacity="0.5"/>
<circle r="1.31642" transform="matrix(0.948323 0.317305 -0.317336 0.948313 78.8867 57.3218)" fill="#DBDBDB" fill-opacity="0.5"/>
<circle cx="83.0645" cy="44.8362" r="1.31642" transform="rotate(18.501 83.0645 44.8362)" fill="#DBDBDB" fill-opacity="0.5"/>
<circle cx="74.7087" cy="69.8073" r="1.31642" transform="rotate(18.501 74.7087 69.8073)" fill="#DBDBDB" fill-opacity="0.5"/>
<circle cx="94.9499" cy="27.9876" r="1.31642" transform="rotate(18.501 94.9499 27.9876)" fill="#DBDBDB" fill-opacity="0.5"/>
<ellipse rx="1.31642" ry="1.31642" transform="matrix(0.948321 0.317313 -0.317329 0.948316 86.5942 52.9591)" fill="#DBDBDB" fill-opacity="0.5"/>
<circle cx="90.7721" cy="40.4732" r="1.31642" transform="rotate(18.501 90.7721 40.4732)" fill="#DBDBDB" fill-opacity="0.5"/>
<circle cx="82.4164" cy="65.4447" r="1.31642" transform="rotate(18.501 82.4164 65.4447)" fill="#DBDBDB" fill-opacity="0.5"/>
<circle cx="92.8609" cy="34.2304" r="1.31642" transform="rotate(18.501 92.8609 34.2304)" fill="#DBDBDB" fill-opacity="0.5"/>
<ellipse rx="1.31642" ry="1.31642" transform="matrix(0.948321 0.317313 -0.317329 0.948316 84.5051 59.2019)" fill="#DBDBDB" fill-opacity="0.5"/>
<circle cx="88.6831" cy="46.7162" r="1.31642" transform="rotate(18.501 88.6831 46.7162)" fill="#DBDBDB" fill-opacity="0.5"/>
<circle cx="80.3272" cy="71.6875" r="1.31642" transform="rotate(18.501 80.3272 71.6875)" fill="#DBDBDB" fill-opacity="0.5"/>
</svg>
