<svg width="99" height="89" viewBox="0 0 99 89" fill="none" xmlns="http://www.w3.org/2000/svg">
<circle cx="1.82795" cy="48.2783" r="1.31642" transform="rotate(-34.0553 1.82795 48.2783)" fill="#DBDBDB" fill-opacity="0.5"/>
<circle cx="16.5738" cy="70.0947" r="1.31642" transform="rotate(-34.0553 16.5738 70.0947)" fill="#DBDBDB" fill-opacity="0.5"/>
<circle cx="9.20076" cy="59.1864" r="1.31642" transform="rotate(-34.0553 9.20076 59.1864)" fill="#DBDBDB" fill-opacity="0.5"/>
<circle cx="23.9467" cy="81.0026" r="1.31642" transform="rotate(-34.0553 23.9467 81.0026)" fill="#DBDBDB" fill-opacity="0.5"/>
<circle cx="5.51436" cy="53.7324" r="1.31642" transform="rotate(-34.0553 5.51436 53.7324)" fill="#DBDBDB" fill-opacity="0.5"/>
<circle cx="20.2603" cy="75.5487" r="1.31642" transform="rotate(-34.0553 20.2603 75.5487)" fill="#DBDBDB" fill-opacity="0.5"/>
<circle cx="12.8873" cy="64.6406" r="1.31642" transform="rotate(-34.0553 12.8873 64.6406)" fill="#DBDBDB" fill-opacity="0.5"/>
<circle cx="27.6331" cy="86.4567" r="1.31642" transform="rotate(-34.0553 27.6331 86.4567)" fill="#DBDBDB" fill-opacity="0.5"/>
<circle cx="1.82795" cy="48.2783" r="1.31642" transform="rotate(-34.0553 1.82795 48.2783)" fill="#DBDBDB" fill-opacity="0.5"/>
<circle cx="16.5738" cy="70.0947" r="1.31642" transform="rotate(-34.0553 16.5738 70.0947)" fill="#DBDBDB" fill-opacity="0.5"/>
<circle cx="9.20076" cy="59.1864" r="1.31642" transform="rotate(-34.0553 9.20076 59.1864)" fill="#DBDBDB" fill-opacity="0.5"/>
<circle cx="23.9467" cy="81.0026" r="1.31642" transform="rotate(-34.0553 23.9467 81.0026)" fill="#DBDBDB" fill-opacity="0.5"/>
<circle cx="5.51436" cy="53.7324" r="1.31642" transform="rotate(-34.0553 5.51436 53.7324)" fill="#DBDBDB" fill-opacity="0.5"/>
<circle cx="20.2603" cy="75.5487" r="1.31642" transform="rotate(-34.0553 20.2603 75.5487)" fill="#DBDBDB" fill-opacity="0.5"/>
<circle cx="12.8873" cy="64.6406" r="1.31642" transform="rotate(-34.0553 12.8873 64.6406)" fill="#DBDBDB" fill-opacity="0.5"/>
<circle cx="27.6331" cy="86.4567" r="1.31642" transform="rotate(-34.0553 27.6331 86.4567)" fill="#DBDBDB" fill-opacity="0.5"/>
<circle cx="6.73652" cy="44.9605" r="1.31642" transform="rotate(-34.0553 6.73652 44.9605)" fill="#DBDBDB" fill-opacity="0.5"/>
<ellipse rx="1.31642" ry="1.31642" transform="matrix(0.828493 -0.559999 0.559986 0.828502 21.4824 66.7768)" fill="#DBDBDB" fill-opacity="0.5"/>
<circle cx="14.1094" cy="55.8686" r="1.31642" transform="rotate(-34.0553 14.1094 55.8686)" fill="#DBDBDB" fill-opacity="0.5"/>
<circle cx="28.8553" cy="77.6848" r="1.31642" transform="rotate(-34.0553 28.8553 77.6848)" fill="#DBDBDB" fill-opacity="0.5"/>
<circle cx="10.4229" cy="50.4145" r="1.31642" transform="rotate(-34.0553 10.4229 50.4145)" fill="#DBDBDB" fill-opacity="0.5"/>
<circle cx="25.1689" cy="72.2308" r="1.31642" transform="rotate(-34.0553 25.1689 72.2308)" fill="#DBDBDB" fill-opacity="0.5"/>
<circle cx="17.796" cy="61.3227" r="1.31642" transform="rotate(-34.0553 17.796 61.3227)" fill="#DBDBDB" fill-opacity="0.5"/>
<circle cx="32.5418" cy="83.1389" r="1.31642" transform="rotate(-34.0553 32.5418 83.1389)" fill="#DBDBDB" fill-opacity="0.5"/>
<circle cx="11.6451" cy="41.6427" r="1.31642" transform="rotate(-34.0553 11.6451 41.6427)" fill="#DBDBDB" fill-opacity="0.5"/>
<circle cx="26.3911" cy="63.4589" r="1.31642" transform="rotate(-34.0553 26.3911 63.4589)" fill="#DBDBDB" fill-opacity="0.5"/>
<circle cx="19.0181" cy="52.5507" r="1.31642" transform="rotate(-34.0553 19.0181 52.5507)" fill="#DBDBDB" fill-opacity="0.5"/>
<circle cx="33.764" cy="74.367" r="1.31642" transform="rotate(-34.0553 33.764 74.367)" fill="#DBDBDB" fill-opacity="0.5"/>
<circle cx="15.3316" cy="47.0968" r="1.31642" transform="rotate(-34.0553 15.3316 47.0968)" fill="#DBDBDB" fill-opacity="0.5"/>
<circle cx="30.0775" cy="68.9129" r="1.31642" transform="rotate(-34.0553 30.0775 68.9129)" fill="#DBDBDB" fill-opacity="0.5"/>
<circle cx="22.7045" cy="58.0048" r="1.31642" transform="rotate(-34.0553 22.7045 58.0048)" fill="#DBDBDB" fill-opacity="0.5"/>
<circle cx="37.4505" cy="79.8211" r="1.31642" transform="rotate(-34.0553 37.4505 79.8211)" fill="#DBDBDB" fill-opacity="0.5"/>
<circle cx="16.5538" cy="38.3249" r="1.31642" transform="rotate(-34.0553 16.5538 38.3249)" fill="#DBDBDB" fill-opacity="0.5"/>
<circle cx="31.2998" cy="60.1412" r="1.31642" transform="rotate(-34.0553 31.2998 60.1412)" fill="#DBDBDB" fill-opacity="0.5"/>
<circle cx="23.9268" cy="49.233" r="1.31642" transform="rotate(-34.0553 23.9268 49.233)" fill="#DBDBDB" fill-opacity="0.5"/>
<circle cx="38.6727" cy="71.0493" r="1.31642" transform="rotate(-34.0553 38.6727 71.0493)" fill="#DBDBDB" fill-opacity="0.5"/>
<circle cx="20.2403" cy="43.7789" r="1.31642" transform="rotate(-34.0553 20.2403 43.7789)" fill="#DBDBDB" fill-opacity="0.5"/>
<circle cx="34.9862" cy="65.5952" r="1.31642" transform="rotate(-34.0553 34.9862 65.5952)" fill="#DBDBDB" fill-opacity="0.5"/>
<circle cx="27.6132" cy="54.687" r="1.31642" transform="rotate(-34.0553 27.6132 54.687)" fill="#DBDBDB" fill-opacity="0.5"/>
<circle cx="42.3591" cy="76.5032" r="1.31642" transform="rotate(-34.0553 42.3591 76.5032)" fill="#DBDBDB" fill-opacity="0.5"/>
<circle cx="21.4625" cy="35.007" r="1.31642" transform="rotate(-34.0553 21.4625 35.007)" fill="#DBDBDB" fill-opacity="0.5"/>
<circle cx="36.2083" cy="56.8232" r="1.31642" transform="rotate(-34.0553 36.2083 56.8232)" fill="#DBDBDB" fill-opacity="0.5"/>
<circle cx="28.8354" cy="45.9151" r="1.31642" transform="rotate(-34.0553 28.8354 45.9151)" fill="#DBDBDB" fill-opacity="0.5"/>
<circle cx="43.5814" cy="67.7314" r="1.31642" transform="rotate(-34.0553 43.5814 67.7314)" fill="#DBDBDB" fill-opacity="0.5"/>
<circle cx="25.1489" cy="40.461" r="1.31642" transform="rotate(-34.0553 25.1489 40.461)" fill="#DBDBDB" fill-opacity="0.5"/>
<circle cx="39.8948" cy="62.2773" r="1.31642" transform="rotate(-34.0553 39.8948 62.2773)" fill="#DBDBDB" fill-opacity="0.5"/>
<circle cx="32.5219" cy="51.3692" r="1.31642" transform="rotate(-34.0553 32.5219 51.3692)" fill="#DBDBDB" fill-opacity="0.5"/>
<circle cx="47.2678" cy="73.1854" r="1.31642" transform="rotate(-34.0553 47.2678 73.1854)" fill="#DBDBDB" fill-opacity="0.5"/>
<circle cx="26.3712" cy="31.6892" r="1.31642" transform="rotate(-34.0553 26.3712 31.6892)" fill="#DBDBDB" fill-opacity="0.5"/>
<circle cx="41.117" cy="53.5054" r="1.31642" transform="rotate(-34.0553 41.117 53.5054)" fill="#DBDBDB" fill-opacity="0.5"/>
<circle cx="33.7441" cy="42.5974" r="1.31642" transform="rotate(-34.0553 33.7441 42.5974)" fill="#DBDBDB" fill-opacity="0.5"/>
<circle cx="48.4899" cy="64.4135" r="1.31642" transform="rotate(-34.0553 48.4899 64.4135)" fill="#DBDBDB" fill-opacity="0.5"/>
<circle cx="30.0577" cy="37.1433" r="1.31642" transform="rotate(-34.0553 30.0577 37.1433)" fill="#DBDBDB" fill-opacity="0.5"/>
<ellipse rx="1.31642" ry="1.31642" transform="matrix(0.828493 -0.559999 0.559986 0.828502 44.8035 58.9595)" fill="#DBDBDB" fill-opacity="0.5"/>
<circle cx="37.4305" cy="48.0515" r="1.31642" transform="rotate(-34.0553 37.4305 48.0515)" fill="#DBDBDB" fill-opacity="0.5"/>
<circle cx="52.1765" cy="69.8676" r="1.31642" transform="rotate(-34.0553 52.1765 69.8676)" fill="#DBDBDB" fill-opacity="0.5"/>
<circle cx="31.2797" cy="28.3714" r="1.31642" transform="rotate(-34.0553 31.2797 28.3714)" fill="#DBDBDB" fill-opacity="0.5"/>
<circle cx="46.0257" cy="50.1876" r="1.31642" transform="rotate(-34.0553 46.0257 50.1876)" fill="#DBDBDB" fill-opacity="0.5"/>
<circle cx="38.6528" cy="39.2795" r="1.31642" transform="rotate(-34.0553 38.6528 39.2795)" fill="#DBDBDB" fill-opacity="0.5"/>
<circle cx="53.3986" cy="61.0958" r="1.31642" transform="rotate(-34.0553 53.3986 61.0958)" fill="#DBDBDB" fill-opacity="0.5"/>
<circle cx="34.9663" cy="33.8254" r="1.31642" transform="rotate(-34.0553 34.9663 33.8254)" fill="#DBDBDB" fill-opacity="0.5"/>
<circle cx="49.7121" cy="55.6417" r="1.31642" transform="rotate(-34.0553 49.7121 55.6417)" fill="#DBDBDB" fill-opacity="0.5"/>
<circle cx="42.3392" cy="44.7336" r="1.31642" transform="rotate(-34.0553 42.3392 44.7336)" fill="#DBDBDB" fill-opacity="0.5"/>
<circle cx="57.085" cy="66.5498" r="1.31642" transform="rotate(-34.0553 57.085 66.5498)" fill="#DBDBDB" fill-opacity="0.5"/>
<circle cx="36.1884" cy="25.0535" r="1.31642" transform="rotate(-34.0553 36.1884 25.0535)" fill="#DBDBDB" fill-opacity="0.5"/>
<circle cx="50.9343" cy="46.8698" r="1.31642" transform="rotate(-34.0553 50.9343 46.8698)" fill="#DBDBDB" fill-opacity="0.5"/>
<circle cx="43.5614" cy="35.9616" r="1.31642" transform="rotate(-34.0553 43.5614 35.9616)" fill="#DBDBDB" fill-opacity="0.5"/>
<circle cx="58.3072" cy="57.7779" r="1.31642" transform="rotate(-34.0553 58.3072 57.7779)" fill="#DBDBDB" fill-opacity="0.5"/>
<ellipse rx="1.31642" ry="1.31642" transform="matrix(0.828493 -0.559999 0.559986 0.828502 39.8749 30.5076)" fill="#DBDBDB" fill-opacity="0.5"/>
<circle cx="54.6208" cy="52.3238" r="1.31642" transform="rotate(-34.0553 54.6208 52.3238)" fill="#DBDBDB" fill-opacity="0.5"/>
<circle cx="47.2479" cy="41.4157" r="1.31642" transform="rotate(-34.0553 47.2479 41.4157)" fill="#DBDBDB" fill-opacity="0.5"/>
<ellipse rx="1.31642" ry="1.31642" transform="matrix(0.828493 -0.559999 0.559986 0.828502 61.9937 63.232)" fill="#DBDBDB" fill-opacity="0.5"/>
<circle cx="41.0971" cy="21.7358" r="1.31642" transform="rotate(-34.0553 41.0971 21.7358)" fill="#DBDBDB" fill-opacity="0.5"/>
<ellipse rx="1.31642" ry="1.31642" transform="matrix(0.828493 -0.559999 0.559986 0.828502 55.843 43.5521)" fill="#DBDBDB" fill-opacity="0.5"/>
<circle cx="48.47" cy="32.6439" r="1.31642" transform="rotate(-34.0553 48.47 32.6439)" fill="#DBDBDB" fill-opacity="0.5"/>
<circle cx="63.2159" cy="54.46" r="1.31642" transform="rotate(-34.0553 63.2159 54.46)" fill="#DBDBDB" fill-opacity="0.5"/>
<circle cx="44.7836" cy="27.1898" r="1.31642" transform="rotate(-34.0553 44.7836 27.1898)" fill="#DBDBDB" fill-opacity="0.5"/>
<circle cx="59.5294" cy="49.0061" r="1.31642" transform="rotate(-34.0553 59.5294 49.0061)" fill="#DBDBDB" fill-opacity="0.5"/>
<circle cx="52.1564" cy="38.098" r="1.31642" transform="rotate(-34.0553 52.1564 38.098)" fill="#DBDBDB" fill-opacity="0.5"/>
<circle cx="66.9023" cy="59.9141" r="1.31642" transform="rotate(-34.0553 66.9023 59.9141)" fill="#DBDBDB" fill-opacity="0.5"/>
<circle cx="46.0058" cy="18.4179" r="1.31642" transform="rotate(-34.0553 46.0058 18.4179)" fill="#DBDBDB" fill-opacity="0.5"/>
<circle cx="60.7515" cy="40.2342" r="1.31642" transform="rotate(-34.0553 60.7515 40.2342)" fill="#DBDBDB" fill-opacity="0.5"/>
<circle cx="53.3787" cy="29.326" r="1.31642" transform="rotate(-34.0553 53.3787 29.326)" fill="#DBDBDB" fill-opacity="0.5"/>
<circle cx="68.1246" cy="51.1423" r="1.31642" transform="rotate(-34.0553 68.1246 51.1423)" fill="#DBDBDB" fill-opacity="0.5"/>
<circle cx="49.6922" cy="23.872" r="1.31642" transform="rotate(-34.0553 49.6922 23.872)" fill="#DBDBDB" fill-opacity="0.5"/>
<circle cx="64.4382" cy="45.6882" r="1.31642" transform="rotate(-34.0553 64.4382 45.6882)" fill="#DBDBDB" fill-opacity="0.5"/>
<circle cx="57.0651" cy="34.7801" r="1.31642" transform="rotate(-34.0553 57.0651 34.7801)" fill="#DBDBDB" fill-opacity="0.5"/>
<circle cx="71.811" cy="56.5963" r="1.31642" transform="rotate(-34.0553 71.811 56.5963)" fill="#DBDBDB" fill-opacity="0.5"/>
<circle cx="50.9144" cy="15.1" r="1.31642" transform="rotate(-34.0553 50.9144 15.1)" fill="#DBDBDB" fill-opacity="0.5"/>
<circle cx="65.6604" cy="36.9163" r="1.31642" transform="rotate(-34.0553 65.6604 36.9163)" fill="#DBDBDB" fill-opacity="0.5"/>
<circle cx="58.2873" cy="26.0082" r="1.31642" transform="rotate(-34.0553 58.2873 26.0082)" fill="#DBDBDB" fill-opacity="0.5"/>
<circle cx="73.0333" cy="47.8244" r="1.31642" transform="rotate(-34.0553 73.0333 47.8244)" fill="#DBDBDB" fill-opacity="0.5"/>
<circle cx="54.6009" cy="20.5541" r="1.31642" transform="rotate(-34.0553 54.6009 20.5541)" fill="#DBDBDB" fill-opacity="0.5"/>
<circle cx="69.3468" cy="42.3704" r="1.31642" transform="rotate(-34.0553 69.3468 42.3704)" fill="#DBDBDB" fill-opacity="0.5"/>
<circle cx="61.9738" cy="31.4622" r="1.31642" transform="rotate(-34.0553 61.9738 31.4622)" fill="#DBDBDB" fill-opacity="0.5"/>
<ellipse rx="1.31642" ry="1.31642" transform="matrix(0.828493 -0.559999 0.559986 0.828502 76.7197 53.2785)" fill="#DBDBDB" fill-opacity="0.5"/>
<circle cx="55.8231" cy="11.7823" r="1.31642" transform="rotate(-34.0553 55.8231 11.7823)" fill="#DBDBDB" fill-opacity="0.5"/>
<circle cx="70.5689" cy="33.5985" r="1.31642" transform="rotate(-34.0553 70.5689 33.5985)" fill="#DBDBDB" fill-opacity="0.5"/>
<circle cx="63.196" cy="22.6904" r="1.31642" transform="rotate(-34.0553 63.196 22.6904)" fill="#DBDBDB" fill-opacity="0.5"/>
<ellipse rx="1.31642" ry="1.31642" transform="matrix(0.828493 -0.559999 0.559986 0.828502 77.942 44.5067)" fill="#DBDBDB" fill-opacity="0.5"/>
<circle cx="59.5095" cy="17.2364" r="1.31642" transform="rotate(-34.0553 59.5095 17.2364)" fill="#DBDBDB" fill-opacity="0.5"/>
<circle cx="74.2554" cy="39.0526" r="1.31642" transform="rotate(-34.0553 74.2554 39.0526)" fill="#DBDBDB" fill-opacity="0.5"/>
<circle cx="66.8824" cy="28.1445" r="1.31642" transform="rotate(-34.0553 66.8824 28.1445)" fill="#DBDBDB" fill-opacity="0.5"/>
<circle cx="81.6284" cy="49.9606" r="1.31642" transform="rotate(-34.0553 81.6284 49.9606)" fill="#DBDBDB" fill-opacity="0.5"/>
<circle cx="60.7318" cy="8.46443" r="1.31642" transform="rotate(-34.0553 60.7318 8.46443)" fill="#DBDBDB" fill-opacity="0.5"/>
<circle cx="75.4775" cy="30.2807" r="1.31642" transform="rotate(-34.0553 75.4775 30.2807)" fill="#DBDBDB" fill-opacity="0.5"/>
<circle cx="68.1047" cy="19.3726" r="1.31642" transform="rotate(-34.0553 68.1047 19.3726)" fill="#DBDBDB" fill-opacity="0.5"/>
<circle cx="82.8504" cy="41.1888" r="1.31642" transform="rotate(-34.0553 82.8504 41.1888)" fill="#DBDBDB" fill-opacity="0.5"/>
<circle cx="64.4183" cy="13.9185" r="1.31642" transform="rotate(-34.0553 64.4183 13.9185)" fill="#DBDBDB" fill-opacity="0.5"/>
<circle cx="79.164" cy="35.7347" r="1.31642" transform="rotate(-34.0553 79.164 35.7347)" fill="#DBDBDB" fill-opacity="0.5"/>
<circle cx="71.7911" cy="24.8266" r="1.31642" transform="rotate(-34.0553 71.7911 24.8266)" fill="#DBDBDB" fill-opacity="0.5"/>
<circle cx="86.5369" cy="46.6429" r="1.31642" transform="rotate(-34.0553 86.5369 46.6429)" fill="#DBDBDB" fill-opacity="0.5"/>
<circle cx="65.6417" cy="5.14595" r="1.31642" transform="rotate(-34.0553 65.6417 5.14595)" fill="#DBDBDB" fill-opacity="0.5"/>
<circle cx="80.3876" cy="26.9622" r="1.31642" transform="rotate(-34.0553 80.3876 26.9622)" fill="#DBDBDB" fill-opacity="0.5"/>
<circle cx="73.0146" cy="16.0541" r="1.31642" transform="rotate(-34.0553 73.0146 16.0541)" fill="#DBDBDB" fill-opacity="0.5"/>
<circle cx="87.7606" cy="37.8703" r="1.31642" transform="rotate(-34.0553 87.7606 37.8703)" fill="#DBDBDB" fill-opacity="0.5"/>
<circle cx="69.3282" cy="10.6" r="1.31642" transform="rotate(-34.0553 69.3282 10.6)" fill="#DBDBDB" fill-opacity="0.5"/>
<circle cx="84.0741" cy="32.4163" r="1.31642" transform="rotate(-34.0553 84.0741 32.4163)" fill="#DBDBDB" fill-opacity="0.5"/>
<circle cx="76.7011" cy="21.5082" r="1.31642" transform="rotate(-34.0553 76.7011 21.5082)" fill="#DBDBDB" fill-opacity="0.5"/>
<circle cx="91.447" cy="43.3244" r="1.31642" transform="rotate(-34.0553 91.447 43.3244)" fill="#DBDBDB" fill-opacity="0.5"/>
<circle cx="70.5504" cy="1.8282" r="1.31642" transform="rotate(-34.0553 70.5504 1.8282)" fill="#DBDBDB" fill-opacity="0.5"/>
<ellipse rx="1.31642" ry="1.31642" transform="matrix(0.828493 -0.559999 0.559986 0.828502 85.2963 23.6445)" fill="#DBDBDB" fill-opacity="0.5"/>
<circle cx="77.9233" cy="12.7363" r="1.31642" transform="rotate(-34.0553 77.9233 12.7363)" fill="#DBDBDB" fill-opacity="0.5"/>
<circle cx="92.6691" cy="34.5524" r="1.31642" transform="rotate(-34.0553 92.6691 34.5524)" fill="#DBDBDB" fill-opacity="0.5"/>
<circle cx="74.2369" cy="7.2823" r="1.31642" transform="rotate(-34.0553 74.2369 7.2823)" fill="#DBDBDB" fill-opacity="0.5"/>
<ellipse rx="1.31642" ry="1.31642" transform="matrix(0.828493 -0.559999 0.559986 0.828502 88.9827 29.0986)" fill="#DBDBDB" fill-opacity="0.5"/>
<circle cx="81.6098" cy="18.1904" r="1.31642" transform="rotate(-34.0553 81.6098 18.1904)" fill="#DBDBDB" fill-opacity="0.5"/>
<circle cx="96.3555" cy="40.0065" r="1.31642" transform="rotate(-34.0553 96.3555 40.0065)" fill="#DBDBDB" fill-opacity="0.5"/>
</svg>
