<svg width="220" height="187" viewBox="0 0 261 248" fill="none" xmlns="http://www.w3.org/2000/svg">
<circle cx="83.8055" cy="4.97757" r="3.53554" transform="rotate(39.5703 83.8055 4.97757)" fill="#DBDBDB" fill-opacity="0.5"/>
<circle cx="38.761" cy="59.4844" r="3.53554" transform="rotate(39.5703 38.761 59.4844)" fill="#DBDBDB" fill-opacity="0.5"/>
<circle cx="61.2833" cy="32.231" r="3.53554" transform="rotate(39.5703 61.2833 32.231)" fill="#DBDBDB" fill-opacity="0.5"/>
<circle cx="16.2388" cy="86.7381" r="3.53554" transform="rotate(39.5703 16.2388 86.7381)" fill="#DBDBDB" fill-opacity="0.5"/>
<circle cx="72.5444" cy="18.6043" r="3.53554" transform="rotate(39.5703 72.5444 18.6043)" fill="#DBDBDB" fill-opacity="0.5"/>
<circle cx="27.4999" cy="73.1114" r="3.53554" transform="rotate(39.5703 27.4999 73.1114)" fill="#DBDBDB" fill-opacity="0.5"/>
<circle cx="50.0221" cy="45.8577" r="3.53554" transform="rotate(39.5703 50.0221 45.8577)" fill="#DBDBDB" fill-opacity="0.5"/>
<circle cx="4.9777" cy="100.365" r="3.53554" transform="rotate(39.5703 4.9777 100.365)" fill="#DBDBDB" fill-opacity="0.5"/>
<circle cx="83.8055" cy="4.97757" r="3.53554" transform="rotate(39.5703 83.8055 4.97757)" fill="#DBDBDB" fill-opacity="0.5"/>
<circle cx="38.761" cy="59.4844" r="3.53554" transform="rotate(39.5703 38.761 59.4844)" fill="#DBDBDB" fill-opacity="0.5"/>
<circle cx="61.2833" cy="32.231" r="3.53554" transform="rotate(39.5703 61.2833 32.231)" fill="#DBDBDB" fill-opacity="0.5"/>
<circle cx="16.2388" cy="86.7381" r="3.53554" transform="rotate(39.5703 16.2388 86.7381)" fill="#DBDBDB" fill-opacity="0.5"/>
<circle cx="72.5444" cy="18.6043" r="3.53554" transform="rotate(39.5703 72.5444 18.6043)" fill="#DBDBDB" fill-opacity="0.5"/>
<circle cx="27.4999" cy="73.1114" r="3.53554" transform="rotate(39.5703 27.4999 73.1114)" fill="#DBDBDB" fill-opacity="0.5"/>
<circle cx="50.0221" cy="45.8577" r="3.53554" transform="rotate(39.5703 50.0221 45.8577)" fill="#DBDBDB" fill-opacity="0.5"/>
<circle cx="4.9777" cy="100.365" r="3.53554" transform="rotate(39.5703 4.9777 100.365)" fill="#DBDBDB" fill-opacity="0.5"/>
<circle cx="96.0696" cy="15.1126" r="3.53554" transform="rotate(39.5703 96.0696 15.1126)" fill="#DBDBDB" fill-opacity="0.5"/>
<circle cx="51.025" cy="69.6194" r="3.53554" transform="rotate(39.5703 51.025 69.6194)" fill="#DBDBDB" fill-opacity="0.5"/>
<circle cx="73.5472" cy="42.366" r="3.53554" transform="rotate(39.5703 73.5472 42.366)" fill="#DBDBDB" fill-opacity="0.5"/>
<circle cx="28.5028" cy="96.8731" r="3.53554" transform="rotate(39.5703 28.5028 96.8731)" fill="#DBDBDB" fill-opacity="0.5"/>
<circle cx="84.8084" cy="28.7393" r="3.53554" transform="rotate(39.5703 84.8084 28.7393)" fill="#DBDBDB" fill-opacity="0.5"/>
<circle cx="39.764" cy="83.2461" r="3.53554" transform="rotate(39.5703 39.764 83.2461)" fill="#DBDBDB" fill-opacity="0.5"/>
<circle cx="62.2861" cy="55.9927" r="3.53554" transform="rotate(39.5703 62.2861 55.9927)" fill="#DBDBDB" fill-opacity="0.5"/>
<circle cx="17.2417" cy="110.5" r="3.53554" transform="rotate(39.5703 17.2417 110.5)" fill="#DBDBDB" fill-opacity="0.5"/>
<circle cx="108.334" cy="25.2476" r="3.53554" transform="rotate(39.5703 108.334 25.2476)" fill="#DBDBDB" fill-opacity="0.5"/>
<circle cx="63.2891" cy="79.7544" r="3.53554" transform="rotate(39.5703 63.2891 79.7544)" fill="#DBDBDB" fill-opacity="0.5"/>
<circle cx="85.8114" cy="52.501" r="3.53554" transform="rotate(39.5703 85.8114 52.501)" fill="#DBDBDB" fill-opacity="0.5"/>
<circle cx="40.7669" cy="107.008" r="3.53554" transform="rotate(39.5703 40.7669 107.008)" fill="#DBDBDB" fill-opacity="0.5"/>
<circle cx="97.0725" cy="38.8743" r="3.53554" transform="rotate(39.5703 97.0725 38.8743)" fill="#DBDBDB" fill-opacity="0.5"/>
<circle cx="52.028" cy="93.3814" r="3.53554" transform="rotate(39.5703 52.028 93.3814)" fill="#DBDBDB" fill-opacity="0.5"/>
<circle cx="74.5502" cy="66.1277" r="3.53554" transform="rotate(39.5703 74.5502 66.1277)" fill="#DBDBDB" fill-opacity="0.5"/>
<circle cx="29.5058" cy="120.635" r="3.53554" transform="rotate(39.5703 29.5058 120.635)" fill="#DBDBDB" fill-opacity="0.5"/>
<circle cx="120.598" cy="35.3826" r="3.53554" transform="rotate(39.5703 120.598 35.3826)" fill="#DBDBDB" fill-opacity="0.5"/>
<circle cx="75.5532" cy="89.8894" r="3.53554" transform="rotate(39.5703 75.5532 89.8894)" fill="#DBDBDB" fill-opacity="0.5"/>
<circle cx="98.0754" cy="62.636" r="3.53554" transform="rotate(39.5703 98.0754 62.636)" fill="#DBDBDB" fill-opacity="0.5"/>
<circle cx="53.031" cy="117.143" r="3.53554" transform="rotate(39.5703 53.031 117.143)" fill="#DBDBDB" fill-opacity="0.5"/>
<circle cx="109.337" cy="49.0093" r="3.53554" transform="rotate(39.5703 109.337 49.0093)" fill="#DBDBDB" fill-opacity="0.5"/>
<circle cx="64.2921" cy="103.516" r="3.53554" transform="rotate(39.5703 64.2921 103.516)" fill="#DBDBDB" fill-opacity="0.5"/>
<circle cx="86.8142" cy="76.2627" r="3.53554" transform="rotate(39.5703 86.8142 76.2627)" fill="#DBDBDB" fill-opacity="0.5"/>
<circle cx="41.7699" cy="130.77" r="3.53554" transform="rotate(39.5703 41.7699 130.77)" fill="#DBDBDB" fill-opacity="0.5"/>
<circle cx="132.862" cy="45.5176" r="3.53554" transform="rotate(39.5703 132.862 45.5176)" fill="#DBDBDB" fill-opacity="0.5"/>
<circle cx="87.8172" cy="100.025" r="3.53554" transform="rotate(39.5703 87.8172 100.025)" fill="#DBDBDB" fill-opacity="0.5"/>
<circle cx="110.34" cy="72.771" r="3.53554" transform="rotate(39.5703 110.34 72.771)" fill="#DBDBDB" fill-opacity="0.5"/>
<circle cx="65.2951" cy="127.278" r="3.53554" transform="rotate(39.5703 65.2951 127.278)" fill="#DBDBDB" fill-opacity="0.5"/>
<circle cx="121.601" cy="59.1443" r="3.53554" transform="rotate(39.5703 121.601 59.1443)" fill="#DBDBDB" fill-opacity="0.5"/>
<circle cx="76.5561" cy="113.651" r="3.53554" transform="rotate(39.5703 76.5561 113.651)" fill="#DBDBDB" fill-opacity="0.5"/>
<circle cx="99.0783" cy="86.3977" r="3.53554" transform="rotate(39.5703 99.0783 86.3977)" fill="#DBDBDB" fill-opacity="0.5"/>
<circle cx="54.034" cy="140.905" r="3.53554" transform="rotate(39.5703 54.034 140.905)" fill="#DBDBDB" fill-opacity="0.5"/>
<circle cx="145.126" cy="55.6526" r="3.53554" transform="rotate(39.5703 145.126 55.6526)" fill="#DBDBDB" fill-opacity="0.5"/>
<circle cx="100.081" cy="110.159" r="3.53554" transform="rotate(39.5703 100.081 110.159)" fill="#DBDBDB" fill-opacity="0.5"/>
<circle cx="122.603" cy="82.906" r="3.53554" transform="rotate(39.5703 122.603 82.906)" fill="#DBDBDB" fill-opacity="0.5"/>
<circle cx="77.5591" cy="137.413" r="3.53554" transform="rotate(39.5703 77.5591 137.413)" fill="#DBDBDB" fill-opacity="0.5"/>
<circle cx="133.865" cy="69.2793" r="3.53554" transform="rotate(39.5703 133.865 69.2793)" fill="#DBDBDB" fill-opacity="0.5"/>
<circle cx="88.8202" cy="123.786" r="3.53554" transform="rotate(39.5703 88.8202 123.786)" fill="#DBDBDB" fill-opacity="0.5"/>
<circle cx="111.342" cy="96.5327" r="3.53554" transform="rotate(39.5703 111.342 96.5327)" fill="#DBDBDB" fill-opacity="0.5"/>
<circle cx="66.298" cy="151.04" r="3.53554" transform="rotate(39.5703 66.298 151.04)" fill="#DBDBDB" fill-opacity="0.5"/>
<circle cx="157.39" cy="65.7876" r="3.53554" transform="rotate(39.5703 157.39 65.7876)" fill="#DBDBDB" fill-opacity="0.5"/>
<circle cx="112.345" cy="120.295" r="3.53554" transform="rotate(39.5703 112.345 120.295)" fill="#DBDBDB" fill-opacity="0.5"/>
<circle cx="134.868" cy="93.041" r="3.53554" transform="rotate(39.5703 134.868 93.041)" fill="#DBDBDB" fill-opacity="0.5"/>
<circle cx="89.8232" cy="147.548" r="3.53554" transform="rotate(39.5703 89.8232 147.548)" fill="#DBDBDB" fill-opacity="0.5"/>
<circle cx="146.129" cy="79.4143" r="3.53554" transform="rotate(39.5703 146.129 79.4143)" fill="#DBDBDB" fill-opacity="0.5"/>
<circle cx="101.084" cy="133.921" r="3.53554" transform="rotate(39.5703 101.084 133.921)" fill="#DBDBDB" fill-opacity="0.5"/>
<circle cx="123.607" cy="106.668" r="3.53554" transform="rotate(39.5703 123.607 106.668)" fill="#DBDBDB" fill-opacity="0.5"/>
<circle cx="78.5621" cy="161.175" r="3.53554" transform="rotate(39.5703 78.5621 161.175)" fill="#DBDBDB" fill-opacity="0.5"/>
<circle cx="169.654" cy="75.9226" r="3.53554" transform="rotate(39.5703 169.654 75.9226)" fill="#DBDBDB" fill-opacity="0.5"/>
<circle cx="124.609" cy="130.429" r="3.53554" transform="rotate(39.5703 124.609 130.429)" fill="#DBDBDB" fill-opacity="0.5"/>
<circle cx="147.132" cy="103.176" r="3.53554" transform="rotate(39.5703 147.132 103.176)" fill="#DBDBDB" fill-opacity="0.5"/>
<circle cx="102.087" cy="157.683" r="3.53554" transform="rotate(39.5703 102.087 157.683)" fill="#DBDBDB" fill-opacity="0.5"/>
<circle cx="158.393" cy="89.5493" r="3.53554" transform="rotate(39.5703 158.393 89.5493)" fill="#DBDBDB" fill-opacity="0.5"/>
<circle cx="113.348" cy="144.056" r="3.53554" transform="rotate(39.5703 113.348 144.056)" fill="#DBDBDB" fill-opacity="0.5"/>
<circle cx="135.871" cy="116.803" r="3.53554" transform="rotate(39.5703 135.871 116.803)" fill="#DBDBDB" fill-opacity="0.5"/>
<circle cx="90.8261" cy="171.31" r="3.53554" transform="rotate(39.5703 90.8261 171.31)" fill="#DBDBDB" fill-opacity="0.5"/>
<circle cx="181.918" cy="86.0576" r="3.53554" transform="rotate(39.5703 181.918 86.0576)" fill="#DBDBDB" fill-opacity="0.5"/>
<circle cx="136.874" cy="140.564" r="3.53554" transform="rotate(39.5703 136.874 140.564)" fill="#DBDBDB" fill-opacity="0.5"/>
<circle cx="159.396" cy="113.311" r="3.53554" transform="rotate(39.5703 159.396 113.311)" fill="#DBDBDB" fill-opacity="0.5"/>
<circle cx="114.351" cy="167.818" r="3.53554" transform="rotate(39.5703 114.351 167.818)" fill="#DBDBDB" fill-opacity="0.5"/>
<circle cx="170.657" cy="99.6844" r="3.53554" transform="rotate(39.5703 170.657 99.6844)" fill="#DBDBDB" fill-opacity="0.5"/>
<circle cx="125.612" cy="154.191" r="3.53554" transform="rotate(39.5703 125.612 154.191)" fill="#DBDBDB" fill-opacity="0.5"/>
<circle cx="148.135" cy="126.938" r="3.53554" transform="rotate(39.5703 148.135 126.938)" fill="#DBDBDB" fill-opacity="0.5"/>
<circle cx="103.09" cy="181.445" r="3.53554" transform="rotate(39.5703 103.09 181.445)" fill="#DBDBDB" fill-opacity="0.5"/>
<circle cx="194.182" cy="96.1927" r="3.53554" transform="rotate(39.5703 194.182 96.1927)" fill="#DBDBDB" fill-opacity="0.5"/>
<circle cx="149.138" cy="150.699" r="3.53554" transform="rotate(39.5703 149.138 150.699)" fill="#DBDBDB" fill-opacity="0.5"/>
<circle cx="171.66" cy="123.446" r="3.53554" transform="rotate(39.5703 171.66 123.446)" fill="#DBDBDB" fill-opacity="0.5"/>
<circle cx="126.615" cy="177.953" r="3.53554" transform="rotate(39.5703 126.615 177.953)" fill="#DBDBDB" fill-opacity="0.5"/>
<circle cx="182.921" cy="109.819" r="3.53554" transform="rotate(39.5703 182.921 109.819)" fill="#DBDBDB" fill-opacity="0.5"/>
<circle cx="137.877" cy="164.326" r="3.53554" transform="rotate(39.5703 137.877 164.326)" fill="#DBDBDB" fill-opacity="0.5"/>
<circle cx="160.399" cy="137.073" r="3.53554" transform="rotate(39.5703 160.399 137.073)" fill="#DBDBDB" fill-opacity="0.5"/>
<circle cx="115.354" cy="191.58" r="3.53554" transform="rotate(39.5703 115.354 191.58)" fill="#DBDBDB" fill-opacity="0.5"/>
<circle cx="206.446" cy="106.328" r="3.53554" transform="rotate(39.5703 206.446 106.328)" fill="#DBDBDB" fill-opacity="0.5"/>
<circle cx="161.402" cy="160.835" r="3.53554" transform="rotate(39.5703 161.402 160.835)" fill="#DBDBDB" fill-opacity="0.5"/>
<circle cx="183.924" cy="133.581" r="3.53554" transform="rotate(39.5703 183.924 133.581)" fill="#DBDBDB" fill-opacity="0.5"/>
<circle cx="138.88" cy="188.088" r="3.53554" transform="rotate(39.5703 138.88 188.088)" fill="#DBDBDB" fill-opacity="0.5"/>
<circle cx="195.185" cy="119.954" r="3.53554" transform="rotate(39.5703 195.185 119.954)" fill="#DBDBDB" fill-opacity="0.5"/>
<circle cx="150.141" cy="174.461" r="3.53554" transform="rotate(39.5703 150.141 174.461)" fill="#DBDBDB" fill-opacity="0.5"/>
<circle cx="172.663" cy="147.208" r="3.53554" transform="rotate(39.5703 172.663 147.208)" fill="#DBDBDB" fill-opacity="0.5"/>
<circle cx="127.618" cy="201.715" r="3.53554" transform="rotate(39.5703 127.618 201.715)" fill="#DBDBDB" fill-opacity="0.5"/>
<circle cx="218.71" cy="116.463" r="3.53554" transform="rotate(39.5703 218.71 116.463)" fill="#DBDBDB" fill-opacity="0.5"/>
<circle cx="173.666" cy="170.97" r="3.53554" transform="rotate(39.5703 173.666 170.97)" fill="#DBDBDB" fill-opacity="0.5"/>
<circle cx="196.188" cy="143.716" r="3.53554" transform="rotate(39.5703 196.188 143.716)" fill="#DBDBDB" fill-opacity="0.5"/>
<circle cx="151.144" cy="198.223" r="3.53554" transform="rotate(39.5703 151.144 198.223)" fill="#DBDBDB" fill-opacity="0.5"/>
<circle cx="207.449" cy="130.089" r="3.53554" transform="rotate(39.5703 207.449 130.089)" fill="#DBDBDB" fill-opacity="0.5"/>
<circle cx="162.405" cy="184.596" r="3.53554" transform="rotate(39.5703 162.405 184.596)" fill="#DBDBDB" fill-opacity="0.5"/>
<circle cx="184.927" cy="157.343" r="3.53554" transform="rotate(39.5703 184.927 157.343)" fill="#DBDBDB" fill-opacity="0.5"/>
<circle cx="139.882" cy="211.85" r="3.53554" transform="rotate(39.5703 139.882 211.85)" fill="#DBDBDB" fill-opacity="0.5"/>
<circle cx="230.974" cy="126.598" r="3.53554" transform="rotate(39.5703 230.974 126.598)" fill="#DBDBDB" fill-opacity="0.5"/>
<circle cx="185.93" cy="181.105" r="3.53554" transform="rotate(39.5703 185.93 181.105)" fill="#DBDBDB" fill-opacity="0.5"/>
<circle cx="208.452" cy="153.851" r="3.53554" transform="rotate(39.5703 208.452 153.851)" fill="#DBDBDB" fill-opacity="0.5"/>
<circle cx="163.408" cy="208.358" r="3.53554" transform="rotate(39.5703 163.408 208.358)" fill="#DBDBDB" fill-opacity="0.5"/>
<circle cx="219.713" cy="140.224" r="3.53554" transform="rotate(39.5703 219.713 140.224)" fill="#DBDBDB" fill-opacity="0.5"/>
<circle cx="174.669" cy="194.731" r="3.53554" transform="rotate(39.5703 174.669 194.731)" fill="#DBDBDB" fill-opacity="0.5"/>
<circle cx="197.191" cy="167.478" r="3.53554" transform="rotate(39.5703 197.191 167.478)" fill="#DBDBDB" fill-opacity="0.5"/>
<circle cx="152.146" cy="221.985" r="3.53554" transform="rotate(39.5703 152.146 221.985)" fill="#DBDBDB" fill-opacity="0.5"/>
<circle cx="243.238" cy="136.733" r="3.53554" transform="rotate(39.5703 243.238 136.733)" fill="#DBDBDB" fill-opacity="0.5"/>
<circle cx="198.194" cy="191.24" r="3.53554" transform="rotate(39.5703 198.194 191.24)" fill="#DBDBDB" fill-opacity="0.5"/>
<circle cx="220.716" cy="163.986" r="3.53554" transform="rotate(39.5703 220.716 163.986)" fill="#DBDBDB" fill-opacity="0.5"/>
<circle cx="175.672" cy="218.493" r="3.53554" transform="rotate(39.5703 175.672 218.493)" fill="#DBDBDB" fill-opacity="0.5"/>
<circle cx="231.977" cy="150.359" r="3.53554" transform="rotate(39.5703 231.977 150.359)" fill="#DBDBDB" fill-opacity="0.5"/>
<circle cx="186.933" cy="204.866" r="3.53554" transform="rotate(39.5703 186.933 204.866)" fill="#DBDBDB" fill-opacity="0.5"/>
<circle cx="209.455" cy="177.613" r="3.53554" transform="rotate(39.5703 209.455 177.613)" fill="#DBDBDB" fill-opacity="0.5"/>
<circle cx="164.41" cy="232.12" r="3.53554" transform="rotate(39.5703 164.41 232.12)" fill="#DBDBDB" fill-opacity="0.5"/>
<circle cx="255.502" cy="146.868" r="3.53554" transform="rotate(39.5703 255.502 146.868)" fill="#DBDBDB" fill-opacity="0.5"/>
<circle cx="210.458" cy="201.375" r="3.53554" transform="rotate(39.5703 210.458 201.375)" fill="#DBDBDB" fill-opacity="0.5"/>
<circle cx="232.98" cy="174.121" r="3.53554" transform="rotate(39.5703 232.98 174.121)" fill="#DBDBDB" fill-opacity="0.5"/>
<circle cx="187.936" cy="228.628" r="3.53554" transform="rotate(39.5703 187.936 228.628)" fill="#DBDBDB" fill-opacity="0.5"/>
<circle cx="244.241" cy="160.494" r="3.53554" transform="rotate(39.5703 244.241 160.494)" fill="#DBDBDB" fill-opacity="0.5"/>
<circle cx="199.197" cy="215.001" r="3.53554" transform="rotate(39.5703 199.197 215.001)" fill="#DBDBDB" fill-opacity="0.5"/>
<circle cx="221.719" cy="187.748" r="3.53554" transform="rotate(39.5703 221.719 187.748)" fill="#DBDBDB" fill-opacity="0.5"/>
<circle cx="176.674" cy="242.255" r="3.53554" transform="rotate(39.5703 176.674 242.255)" fill="#DBDBDB" fill-opacity="0.5"/>
</svg>
